<mxfile host="app.diagrams.net" modified="2020-09-27T14:33:40.290Z" agent="5.0 (X11)" etag="ZrfHWRhrUn2ZmFysqm48" version="13.7.5" type="github" pages="7">
  <diagram id="bb75hKjfEB5PGJDdD92y" name="Not Found">
    <mxGraphModel dx="1422" dy="729" grid="1" gridSize="10" guides="1" tooltips="1" connect="1" arrows="1" fold="1" page="1" pageScale="1" pageWidth="1169" pageHeight="827" math="0" shadow="0" extFonts="montserrat^https://fonts.googleapis.com/css?family=montserrat">
      <root>
        <mxCell id="0" />
        <mxCell id="1" parent="0" />
        <mxCell id="IxKD6xx-zbaI3HftoCuZ-1" value="Diagram Not Found&lt;br style=&quot;font-size: 57px;&quot;&gt;&lt;br style=&quot;font-size: 57px;&quot;&gt;Please open a Github issue" style="text;html=1;strokeColor=none;fillColor=none;align=center;verticalAlign=middle;whiteSpace=wrap;rounded=0;fontSize=57;fontFamily=montserrat;FType=g;" parent="1" vertex="1">
          <mxGeometry x="230" y="130" width="670" height="450" as="geometry" />
        </mxCell>
      </root>
    </mxGraphModel>
  </diagram>
  <diagram name="Kindnet" id="a-ASnmM8o81X1hkJ6S8l">
    <mxGraphModel dx="1422" dy="729" grid="1" gridSize="10" guides="1" tooltips="1" connect="1" arrows="1" fold="1" page="1" pageScale="1" pageWidth="1169" pageHeight="827" math="0" shadow="0" extFonts="pt sans narrow^https://fonts.googleapis.com/css?family=pt+sans+narrow|montserrat^https://fonts.googleapis.com/css?family=montserrat">
      <root>
        <mxCell id="JmhUjh2bwEEavnvwu7f5-0" />
        <mxCell id="JmhUjh2bwEEavnvwu7f5-1" parent="JmhUjh2bwEEavnvwu7f5-0" />
        <mxCell id="JmhUjh2bwEEavnvwu7f5-2" value="Node: worker" style="whiteSpace=wrap;html=1;rounded=1;arcSize=5;fontFamily=Montserrat;fontSource=https%3A%2F%2Ffonts.googleapis.com%2Fcss%3Ffamily%3DMontserrat;fontSize=22;verticalAlign=top;" parent="JmhUjh2bwEEavnvwu7f5-1" vertex="1">
          <mxGeometry x="50" y="40" width="340" height="470" as="geometry" />
        </mxCell>
        <mxCell id="JmhUjh2bwEEavnvwu7f5-7" value="&lt;div&gt;&lt;font data-font-src=&quot;https://fonts.googleapis.com/css?family=Montserrat&quot; face=&quot;Montserrat&quot;&gt;eth0&lt;/font&gt;&lt;/div&gt;&lt;div&gt;&lt;font data-font-src=&quot;https://fonts.googleapis.com/css?family=Montserrat&quot; face=&quot;Montserrat&quot;&gt;.11&lt;br&gt;&lt;/font&gt;&lt;/div&gt;" style="rounded=1;whiteSpace=wrap;html=1;fontSize=16;fontFamily=PT Sans Narrow;fontColor=#FFFFFF;strokeColor=none;fillColor=#c65835;" parent="JmhUjh2bwEEavnvwu7f5-1" vertex="1">
          <mxGeometry x="170" y="485" width="80" height="40" as="geometry" />
        </mxCell>
        <mxCell id="JmhUjh2bwEEavnvwu7f5-8" value="Node: worker2" style="whiteSpace=wrap;html=1;rounded=1;arcSize=5;fontFamily=Montserrat;fontSource=https%3A%2F%2Ffonts.googleapis.com%2Fcss%3Ffamily%3DMontserrat;fontSize=22;verticalAlign=top;" parent="JmhUjh2bwEEavnvwu7f5-1" vertex="1">
          <mxGeometry x="420" y="40" width="340" height="470" as="geometry" />
        </mxCell>
        <mxCell id="JmhUjh2bwEEavnvwu7f5-9" value="Node: control-plane" style="whiteSpace=wrap;html=1;rounded=1;arcSize=5;fontFamily=Montserrat;fontSource=https%3A%2F%2Ffonts.googleapis.com%2Fcss%3Ffamily%3DMontserrat;fontSize=22;verticalAlign=top;" parent="JmhUjh2bwEEavnvwu7f5-1" vertex="1">
          <mxGeometry x="800" y="40" width="340" height="470" as="geometry" />
        </mxCell>
        <mxCell id="JmhUjh2bwEEavnvwu7f5-10" value="" style="group" parent="JmhUjh2bwEEavnvwu7f5-1" vertex="1" connectable="0">
          <mxGeometry x="560.5" y="589" width="80" height="80" as="geometry" />
        </mxCell>
        <mxCell id="JmhUjh2bwEEavnvwu7f5-15" value="&lt;div&gt;&lt;font data-font-src=&quot;https://fonts.googleapis.com/css?family=Montserrat&quot; face=&quot;Montserrat&quot;&gt;eth0&lt;/font&gt;&lt;/div&gt;&lt;div&gt;&lt;font data-font-src=&quot;https://fonts.googleapis.com/css?family=Montserrat&quot; face=&quot;Montserrat&quot;&gt;.12&lt;br&gt;&lt;/font&gt;&lt;/div&gt;" style="rounded=1;whiteSpace=wrap;html=1;fontSize=16;fontFamily=PT Sans Narrow;fontColor=#FFFFFF;strokeColor=none;fillColor=#c65835;" parent="JmhUjh2bwEEavnvwu7f5-1" vertex="1">
          <mxGeometry x="550" y="485" width="80" height="40" as="geometry" />
        </mxCell>
        <mxCell id="JmhUjh2bwEEavnvwu7f5-16" value="&lt;div&gt;&lt;font data-font-src=&quot;https://fonts.googleapis.com/css?family=Montserrat&quot; face=&quot;Montserrat&quot;&gt;eth0&lt;/font&gt;&lt;/div&gt;&lt;div&gt;&lt;font data-font-src=&quot;https://fonts.googleapis.com/css?family=Montserrat&quot; face=&quot;Montserrat&quot;&gt;.10&lt;/font&gt;&lt;/div&gt;" style="rounded=1;whiteSpace=wrap;html=1;fontSize=16;fontFamily=PT Sans Narrow;fontColor=#FFFFFF;strokeColor=none;fillColor=#c65835;" parent="JmhUjh2bwEEavnvwu7f5-1" vertex="1">
          <mxGeometry x="940" y="485" width="80" height="40" as="geometry" />
        </mxCell>
        <mxCell id="JmhUjh2bwEEavnvwu7f5-17" value="" style="endArrow=none;dashed=1;html=1;fontFamily=Montserrat;fontSize=22;" parent="JmhUjh2bwEEavnvwu7f5-1" edge="1">
          <mxGeometry width="50" height="50" relative="1" as="geometry">
            <mxPoint x="80" y="569" as="sourcePoint" />
            <mxPoint x="1120" y="569" as="targetPoint" />
          </mxGeometry>
        </mxCell>
        <mxCell id="JmhUjh2bwEEavnvwu7f5-18" value="&lt;div&gt;&lt;font data-font-src=&quot;https://fonts.googleapis.com/css?family=Montserrat&quot; style=&quot;font-size: 20px&quot; face=&quot;Montserrat&quot;&gt;Host OS &lt;br&gt;&lt;/font&gt;&lt;/div&gt;&lt;div&gt;&lt;font data-font-src=&quot;https://fonts.googleapis.com/css?family=Montserrat&quot; style=&quot;font-size: 20px&quot; face=&quot;Montserrat&quot;&gt;network namespace&lt;/font&gt;&lt;/div&gt;" style="text;whiteSpace=wrap;html=1;fontSize=22;fontFamily=Montserrat;" parent="JmhUjh2bwEEavnvwu7f5-1" vertex="1">
          <mxGeometry x="80" y="569" width="240" height="40" as="geometry" />
        </mxCell>
        <mxCell id="JmhUjh2bwEEavnvwu7f5-20" value="&lt;font style=&quot;font-size: 17px&quot; color=&quot;#EEAB96&quot;&gt;kind:&lt;/font&gt; &lt;font style=&quot;font-size: 17px&quot; face=&quot;Montserrat&quot;&gt;172.18.0.1/16&lt;/font&gt;" style="rounded=1;whiteSpace=wrap;html=1;fontFamily=PT Sans Narrow;fontSize=17;strokeColor=none;fillColor=#c65835;fontSource=https%3A%2F%2Ffonts.googleapis.com%2Fcss%3Ffamily%3DPT%2BSans%2BNarrow;fontColor=#FFFFFF;" parent="JmhUjh2bwEEavnvwu7f5-1" vertex="1">
          <mxGeometry x="502.63" y="609" width="174.75" height="40" as="geometry" />
        </mxCell>
        <mxCell id="JmhUjh2bwEEavnvwu7f5-21" value="&lt;font style=&quot;font-size: 17px&quot; color=&quot;#AEC0E0&quot;&gt;vethX:&lt;/font&gt; &lt;font face=&quot;Montserrat&quot;&gt;10.244.2.1&lt;/font&gt;&lt;font style=&quot;font-size: 17px&quot; face=&quot;Montserrat&quot;&gt;/32&lt;/font&gt;" style="rounded=1;whiteSpace=wrap;html=1;fontFamily=PT Sans Narrow;fontSize=17;strokeColor=none;fontSource=https%3A%2F%2Ffonts.googleapis.com%2Fcss%3Ffamily%3DPT%2BSans%2BNarrow;fontColor=#FFFFFF;fillColor=#496495;" parent="JmhUjh2bwEEavnvwu7f5-1" vertex="1">
          <mxGeometry x="122.61999999999999" y="240" width="174.75" height="40" as="geometry" />
        </mxCell>
        <mxCell id="JmhUjh2bwEEavnvwu7f5-22" value="&lt;font style=&quot;font-size: 17px&quot; color=&quot;#AEC0E0&quot;&gt;vethY:&lt;/font&gt; &lt;font face=&quot;Montserrat&quot;&gt;10.244.1.1&lt;/font&gt;&lt;font style=&quot;font-size: 17px&quot; face=&quot;Montserrat&quot;&gt;/32&lt;/font&gt;" style="rounded=1;whiteSpace=wrap;html=1;fontFamily=PT Sans Narrow;fontSize=17;strokeColor=none;fontSource=https%3A%2F%2Ffonts.googleapis.com%2Fcss%3Ffamily%3DPT%2BSans%2BNarrow;fontColor=#FFFFFF;fillColor=#496495;" parent="JmhUjh2bwEEavnvwu7f5-1" vertex="1">
          <mxGeometry x="502.63" y="240" width="174.75" height="40" as="geometry" />
        </mxCell>
        <mxCell id="JmhUjh2bwEEavnvwu7f5-23" value="&lt;font style=&quot;font-size: 17px&quot; color=&quot;#AEC0E0&quot;&gt;vethZ:&lt;/font&gt; &lt;font face=&quot;Montserrat&quot;&gt;10.244.0.1&lt;/font&gt;&lt;font style=&quot;font-size: 17px&quot; face=&quot;Montserrat&quot;&gt;/32&lt;/font&gt;" style="rounded=1;whiteSpace=wrap;html=1;fontFamily=PT Sans Narrow;fontSize=17;strokeColor=none;fontSource=https%3A%2F%2Ffonts.googleapis.com%2Fcss%3Ffamily%3DPT%2BSans%2BNarrow;fontColor=#FFFFFF;fillColor=#496495;" parent="JmhUjh2bwEEavnvwu7f5-1" vertex="1">
          <mxGeometry x="892.63" y="240" width="174.75" height="40" as="geometry" />
        </mxCell>
        <mxCell id="JmhUjh2bwEEavnvwu7f5-24" value="&lt;div style=&quot;font-size: 18px&quot;&gt;Pod-1:&lt;/div&gt;&lt;div style=&quot;font-size: 18px&quot;&gt;10.244.2.3/24&lt;br style=&quot;font-size: 18px&quot;&gt;&lt;/div&gt;&lt;div style=&quot;font-size: 18px&quot;&gt;&lt;br style=&quot;font-size: 18px&quot;&gt;&lt;/div&gt;&lt;div style=&quot;font-size: 18px&quot;&gt;&lt;font style=&quot;font-size: 16px&quot;&gt;&lt;b&gt;default&lt;/b&gt; &lt;br&gt;&lt;/font&gt;&lt;/div&gt;&lt;div style=&quot;font-size: 18px&quot;&gt;&lt;font style=&quot;font-size: 16px&quot; face=&quot;PT Sans Narrow&quot;&gt;via 10.244.2.1&lt;/font&gt;&lt;br style=&quot;font-size: 18px&quot;&gt;&lt;/div&gt;" style="whiteSpace=wrap;html=1;rounded=1;arcSize=5;fontFamily=Montserrat;fontSource=https%3A%2F%2Ffonts.googleapis.com%2Fcss%3Ffamily%3DMontserrat;fontSize=22;verticalAlign=top;" parent="JmhUjh2bwEEavnvwu7f5-1" vertex="1">
          <mxGeometry x="150" y="80" width="120" height="121" as="geometry" />
        </mxCell>
        <mxCell id="JmhUjh2bwEEavnvwu7f5-25" value="&lt;div style=&quot;font-size: 18px&quot;&gt;Pod-2:&lt;/div&gt;&lt;div style=&quot;font-size: 18px&quot;&gt;10.244.1.8/24&lt;br style=&quot;font-size: 18px&quot;&gt;&lt;/div&gt;&lt;div style=&quot;font-size: 18px&quot;&gt;&lt;br style=&quot;font-size: 18px&quot;&gt;&lt;/div&gt;&lt;div style=&quot;font-size: 18px&quot;&gt;&lt;font style=&quot;font-size: 16px&quot;&gt;&lt;b&gt;default&lt;/b&gt; &lt;br&gt;&lt;/font&gt;&lt;/div&gt;&lt;div style=&quot;font-size: 18px&quot;&gt;&lt;font style=&quot;font-size: 16px&quot; face=&quot;PT Sans Narrow&quot;&gt;via &lt;font&gt;10.244.1.1&lt;/font&gt;&lt;/font&gt;&lt;br style=&quot;font-size: 18px&quot;&gt;&lt;/div&gt;" style="whiteSpace=wrap;html=1;rounded=1;arcSize=5;fontFamily=Montserrat;fontSource=https%3A%2F%2Ffonts.googleapis.com%2Fcss%3Ffamily%3DMontserrat;fontSize=22;verticalAlign=top;" parent="JmhUjh2bwEEavnvwu7f5-1" vertex="1">
          <mxGeometry x="530" y="80" width="120" height="121" as="geometry" />
        </mxCell>
        <mxCell id="JmhUjh2bwEEavnvwu7f5-26" value="&lt;div style=&quot;font-size: 18px&quot;&gt;Pod-3:&lt;/div&gt;&lt;div style=&quot;font-size: 18px&quot;&gt;10.244.0.5/24&lt;br style=&quot;font-size: 18px&quot;&gt;&lt;/div&gt;&lt;div style=&quot;font-size: 18px&quot;&gt;&lt;br style=&quot;font-size: 18px&quot;&gt;&lt;/div&gt;&lt;div style=&quot;font-size: 18px&quot;&gt;&lt;font style=&quot;font-size: 16px&quot;&gt;&lt;b&gt;default&lt;/b&gt; &lt;br&gt;&lt;/font&gt;&lt;/div&gt;&lt;div style=&quot;font-size: 18px&quot;&gt;&lt;font style=&quot;font-size: 16px&quot; face=&quot;PT Sans Narrow&quot;&gt;via 10.244.0.1&lt;/font&gt;&lt;br style=&quot;font-size: 18px&quot;&gt;&lt;/div&gt;" style="whiteSpace=wrap;html=1;rounded=1;arcSize=5;fontFamily=Montserrat;fontSource=https%3A%2F%2Ffonts.googleapis.com%2Fcss%3Ffamily%3DMontserrat;fontSize=18;verticalAlign=top;" parent="JmhUjh2bwEEavnvwu7f5-1" vertex="1">
          <mxGeometry x="920" y="80" width="120" height="121" as="geometry" />
        </mxCell>
        <mxCell id="JmhUjh2bwEEavnvwu7f5-27" value="" style="endArrow=oval;html=1;fontFamily=Montserrat;fontSize=22;entryX=0.5;entryY=1;entryDx=0;entryDy=0;exitX=0.5;exitY=0;exitDx=0;exitDy=0;startArrow=oval;startFill=1;endFill=1;strokeWidth=2;strokeColor=#292E38;" parent="JmhUjh2bwEEavnvwu7f5-1" source="JmhUjh2bwEEavnvwu7f5-21" target="JmhUjh2bwEEavnvwu7f5-24" edge="1">
          <mxGeometry width="50" height="50" relative="1" as="geometry">
            <mxPoint x="610.0050000000001" y="550" as="sourcePoint" />
            <mxPoint x="610" y="480.9999999999998" as="targetPoint" />
          </mxGeometry>
        </mxCell>
        <mxCell id="JmhUjh2bwEEavnvwu7f5-28" value="" style="endArrow=oval;html=1;fontFamily=Montserrat;fontSize=22;entryX=0.5;entryY=1;entryDx=0;entryDy=0;strokeWidth=2;endFill=1;startFill=1;startArrow=oval;strokeColor=#292E38;" parent="JmhUjh2bwEEavnvwu7f5-1" source="JmhUjh2bwEEavnvwu7f5-22" target="JmhUjh2bwEEavnvwu7f5-25" edge="1">
          <mxGeometry width="50" height="50" relative="1" as="geometry">
            <mxPoint x="220.00499999999988" y="310" as="sourcePoint" />
            <mxPoint x="220" y="211" as="targetPoint" />
          </mxGeometry>
        </mxCell>
        <mxCell id="JmhUjh2bwEEavnvwu7f5-29" value="" style="endArrow=oval;html=1;fontFamily=Montserrat;fontSize=22;entryX=0.5;entryY=1;entryDx=0;entryDy=0;exitX=0.5;exitY=0;exitDx=0;exitDy=0;strokeWidth=2;endFill=1;startFill=1;startArrow=oval;strokeColor=#292E38;" parent="JmhUjh2bwEEavnvwu7f5-1" source="JmhUjh2bwEEavnvwu7f5-23" target="JmhUjh2bwEEavnvwu7f5-26" edge="1">
          <mxGeometry width="50" height="50" relative="1" as="geometry">
            <mxPoint x="230.00499999999988" y="320" as="sourcePoint" />
            <mxPoint x="230" y="221" as="targetPoint" />
          </mxGeometry>
        </mxCell>
        <mxCell id="JmhUjh2bwEEavnvwu7f5-31" value="" style="endArrow=none;dashed=1;html=1;fontFamily=Montserrat;fontSize=22;exitX=0;exitY=0.5;exitDx=0;exitDy=0;entryX=1;entryY=0.5;entryDx=0;entryDy=0;" parent="JmhUjh2bwEEavnvwu7f5-1" edge="1">
          <mxGeometry width="50" height="50" relative="1" as="geometry">
            <mxPoint x="50" y="228.5" as="sourcePoint" />
            <mxPoint x="390" y="228.5" as="targetPoint" />
          </mxGeometry>
        </mxCell>
        <mxCell id="JmhUjh2bwEEavnvwu7f5-33" value="" style="endArrow=none;dashed=1;html=1;fontFamily=Montserrat;fontSize=22;exitX=0;exitY=0.5;exitDx=0;exitDy=0;entryX=1;entryY=0.5;entryDx=0;entryDy=0;" parent="JmhUjh2bwEEavnvwu7f5-1" edge="1">
          <mxGeometry width="50" height="50" relative="1" as="geometry">
            <mxPoint x="420" y="228.5" as="sourcePoint" />
            <mxPoint x="760" y="228.5" as="targetPoint" />
          </mxGeometry>
        </mxCell>
        <mxCell id="JmhUjh2bwEEavnvwu7f5-35" value="" style="endArrow=none;dashed=1;html=1;fontFamily=Montserrat;fontSize=22;exitX=0;exitY=0.5;exitDx=0;exitDy=0;entryX=1;entryY=0.5;entryDx=0;entryDy=0;" parent="JmhUjh2bwEEavnvwu7f5-1" edge="1">
          <mxGeometry width="50" height="50" relative="1" as="geometry">
            <mxPoint x="800" y="228.5" as="sourcePoint" />
            <mxPoint x="1140" y="228.5" as="targetPoint" />
          </mxGeometry>
        </mxCell>
        <mxCell id="JmhUjh2bwEEavnvwu7f5-36" value="" style="endArrow=oval;html=1;fontFamily=Montserrat;fontSize=22;entryX=0.5;entryY=1;entryDx=0;entryDy=0;edgeStyle=orthogonalEdgeStyle;exitX=0;exitY=0.5;exitDx=0;exitDy=0;curved=1;startArrow=oval;startFill=1;endFill=1;strokeWidth=2;strokeColor=#666361;" parent="JmhUjh2bwEEavnvwu7f5-1" source="JmhUjh2bwEEavnvwu7f5-20" target="JmhUjh2bwEEavnvwu7f5-7" edge="1">
          <mxGeometry width="50" height="50" relative="1" as="geometry">
            <mxPoint x="561" y="560" as="sourcePoint" />
            <mxPoint x="490" y="541" as="targetPoint" />
          </mxGeometry>
        </mxCell>
        <mxCell id="JmhUjh2bwEEavnvwu7f5-37" value="" style="endArrow=oval;html=1;fontFamily=Montserrat;fontSize=22;entryX=0.5;entryY=1;entryDx=0;entryDy=0;exitX=0.5;exitY=0;exitDx=0;exitDy=0;strokeColor=#666361;startArrow=oval;startFill=1;endFill=1;strokeWidth=2;" parent="JmhUjh2bwEEavnvwu7f5-1" source="JmhUjh2bwEEavnvwu7f5-20" target="JmhUjh2bwEEavnvwu7f5-15" edge="1">
          <mxGeometry width="50" height="50" relative="1" as="geometry">
            <mxPoint x="600.5" y="520.5" as="sourcePoint" />
            <mxPoint x="220" y="481" as="targetPoint" />
          </mxGeometry>
        </mxCell>
        <mxCell id="JmhUjh2bwEEavnvwu7f5-38" value="" style="endArrow=oval;html=1;fontFamily=Montserrat;fontSize=22;entryX=0.5;entryY=1;entryDx=0;entryDy=0;exitX=1;exitY=0.5;exitDx=0;exitDy=0;edgeStyle=orthogonalEdgeStyle;curved=1;strokeColor=#666361;startArrow=oval;startFill=1;endFill=1;strokeWidth=2;" parent="JmhUjh2bwEEavnvwu7f5-1" source="JmhUjh2bwEEavnvwu7f5-20" target="JmhUjh2bwEEavnvwu7f5-16" edge="1">
          <mxGeometry width="50" height="50" relative="1" as="geometry">
            <mxPoint x="640" y="560" as="sourcePoint" />
            <mxPoint x="610" y="481" as="targetPoint" />
          </mxGeometry>
        </mxCell>
        <mxCell id="JmhUjh2bwEEavnvwu7f5-43" value="&lt;div style=&quot;font-size: 16px&quot;&gt;&lt;b&gt;default&lt;/b&gt;&lt;span style=&quot;left: 208.599px ; top: 216.875px ; font-size: 15px ; font-family: sans-serif&quot;&gt; → &lt;/span&gt;&lt;span&gt;&lt;span class=&quot;char&quot;&gt;&lt;span class=&quot;vchar&quot; id=&quot;char-node&quot; style=&quot;font-family: &amp;#34;u1f800&amp;#34;&quot;&gt;&lt;/span&gt;&lt;/span&gt;&lt;/span&gt;&lt;font data-font-src=&quot;https://fonts.googleapis.com/css?family=PT+Sans+Narrow&quot; face=&quot;PT Sans Narrow&quot;&gt;172.18.0.1&lt;/font&gt;&lt;/div&gt;&lt;div style=&quot;font-size: 16px&quot;&gt;&lt;b&gt;10.244.1.0/24&lt;/b&gt;&lt;span style=&quot;left: 208.599px ; top: 216.875px ; font-size: 15px ; font-family: sans-serif&quot;&gt; → &lt;/span&gt;&lt;span&gt;&lt;span class=&quot;char&quot;&gt;&lt;span class=&quot;vchar&quot; id=&quot;char-node&quot; style=&quot;font-family: &amp;#34;u1f800&amp;#34;&quot;&gt;&lt;/span&gt;&lt;/span&gt;&lt;/span&gt;&lt;font data-font-src=&quot;https://fonts.googleapis.com/css?family=PT+Sans+Narrow&quot; face=&quot;PT Sans Narrow&quot;&gt;.12&lt;/font&gt;&lt;/div&gt;&lt;div style=&quot;font-size: 16px&quot;&gt;&lt;b&gt;10.244.0.0/24&lt;/b&gt;&lt;span style=&quot;left: 208.599px ; top: 216.875px ; font-size: 15px ; font-family: sans-serif&quot;&gt; → &lt;/span&gt;&lt;span&gt;&lt;span class=&quot;char&quot;&gt;&lt;span class=&quot;vchar&quot; id=&quot;char-node&quot; style=&quot;font-family: &amp;#34;u1f800&amp;#34;&quot;&gt;&lt;/span&gt;&lt;/span&gt;&lt;/span&gt;&lt;font data-font-src=&quot;https://fonts.googleapis.com/css?family=PT+Sans+Narrow&quot; face=&quot;PT Sans Narrow&quot;&gt;.10&lt;/font&gt;&lt;br style=&quot;font-size: 16px&quot;&gt;&lt;/div&gt;" style="text;whiteSpace=wrap;html=1;fontSize=16;fontFamily=Montserrat;" parent="JmhUjh2bwEEavnvwu7f5-1" vertex="1">
          <mxGeometry x="120" y="414" width="240" height="66" as="geometry" />
        </mxCell>
        <mxCell id="JmhUjh2bwEEavnvwu7f5-44" value="" style="endArrow=classic;html=1;strokeWidth=2;fontFamily=Montserrat;fontSize=18;strokeColor=#C65835;" parent="JmhUjh2bwEEavnvwu7f5-1" edge="1">
          <mxGeometry width="50" height="50" relative="1" as="geometry">
            <mxPoint x="290" y="414" as="sourcePoint" />
            <mxPoint x="290" y="494" as="targetPoint" />
          </mxGeometry>
        </mxCell>
        <mxCell id="JmhUjh2bwEEavnvwu7f5-45" value="&lt;b&gt;10.244.1.3/32&lt;/b&gt; &lt;span&gt;&lt;span class=&quot;char&quot;&gt;&lt;span class=&quot;vchar&quot; id=&quot;char-node&quot; style=&quot;font-family: &amp;#34;u1f800&amp;#34;&quot;&gt;&lt;span style=&quot;left: 208.599px ; top: 216.875px ; font-size: 15px ; font-family: sans-serif&quot;&gt;→&lt;/span&gt; &lt;/span&gt;&lt;/span&gt;&lt;/span&gt;&lt;font data-font-src=&quot;https://fonts.googleapis.com/css?family=PT+Sans+Narrow&quot; face=&quot;PT Sans Narrow&quot;&gt;vethX&lt;/font&gt;" style="text;whiteSpace=wrap;html=1;fontSize=16;fontFamily=Montserrat;" parent="JmhUjh2bwEEavnvwu7f5-1" vertex="1">
          <mxGeometry x="127" y="282" width="240" height="40" as="geometry" />
        </mxCell>
        <mxCell id="JmhUjh2bwEEavnvwu7f5-46" value="" style="endArrow=classic;html=1;strokeWidth=2;fontFamily=Montserrat;fontSize=18;strokeColor=#496495;" parent="JmhUjh2bwEEavnvwu7f5-1" edge="1">
          <mxGeometry width="50" height="50" relative="1" as="geometry">
            <mxPoint x="312" y="322" as="sourcePoint" />
            <mxPoint x="312" y="242" as="targetPoint" />
          </mxGeometry>
        </mxCell>
        <mxCell id="JmhUjh2bwEEavnvwu7f5-48" value="" style="endArrow=classic;html=1;strokeWidth=2;fontFamily=Montserrat;fontSize=18;strokeColor=#C65835;" parent="JmhUjh2bwEEavnvwu7f5-1" edge="1">
          <mxGeometry width="50" height="50" relative="1" as="geometry">
            <mxPoint x="672.63" y="414" as="sourcePoint" />
            <mxPoint x="672.63" y="494" as="targetPoint" />
          </mxGeometry>
        </mxCell>
        <mxCell id="JmhUjh2bwEEavnvwu7f5-50" value="" style="endArrow=classic;html=1;strokeWidth=2;fontFamily=Montserrat;fontSize=18;strokeColor=#496495;" parent="JmhUjh2bwEEavnvwu7f5-1" edge="1">
          <mxGeometry width="50" height="50" relative="1" as="geometry">
            <mxPoint x="692.63" y="320" as="sourcePoint" />
            <mxPoint x="692.63" y="240" as="targetPoint" />
          </mxGeometry>
        </mxCell>
        <mxCell id="JmhUjh2bwEEavnvwu7f5-52" value="" style="endArrow=classic;html=1;strokeWidth=2;fontFamily=Montserrat;fontSize=18;strokeColor=#C65835;" parent="JmhUjh2bwEEavnvwu7f5-1" edge="1">
          <mxGeometry width="50" height="50" relative="1" as="geometry">
            <mxPoint x="1062.63" y="414" as="sourcePoint" />
            <mxPoint x="1062.63" y="494" as="targetPoint" />
          </mxGeometry>
        </mxCell>
        <mxCell id="JmhUjh2bwEEavnvwu7f5-54" value="" style="endArrow=classic;html=1;strokeWidth=2;fontFamily=Montserrat;fontSize=18;strokeColor=#496495;" parent="JmhUjh2bwEEavnvwu7f5-1" edge="1">
          <mxGeometry width="50" height="50" relative="1" as="geometry">
            <mxPoint x="1083" y="320" as="sourcePoint" />
            <mxPoint x="1083" y="240" as="targetPoint" />
          </mxGeometry>
        </mxCell>
        <mxCell id="OifUIiYzHp4yymYIvVrX-20" value="&lt;div style=&quot;font-size: 16px&quot;&gt;&lt;b&gt;default&lt;/b&gt;&lt;span style=&quot;left: 208.599px ; top: 216.875px ; font-size: 15px ; font-family: sans-serif&quot;&gt; → &lt;/span&gt;&lt;span&gt;&lt;span class=&quot;char&quot;&gt;&lt;span class=&quot;vchar&quot; id=&quot;char-node&quot; style=&quot;font-family: &amp;#34;u1f800&amp;#34;&quot;&gt;&lt;/span&gt;&lt;/span&gt;&lt;/span&gt;&lt;font data-font-src=&quot;https://fonts.googleapis.com/css?family=PT+Sans+Narrow&quot; face=&quot;PT Sans Narrow&quot;&gt;172.18.0.1&lt;/font&gt;&lt;/div&gt;&lt;div style=&quot;font-size: 16px&quot;&gt;&lt;b&gt;10.244.1.0/24&lt;/b&gt;&lt;span style=&quot;left: 208.599px ; top: 216.875px ; font-size: 15px ; font-family: sans-serif&quot;&gt; → &lt;/span&gt;&lt;font data-font-src=&quot;https://fonts.googleapis.com/css?family=PT+Sans+Narrow&quot; face=&quot;PT Sans Narrow&quot;&gt;.12&lt;/font&gt;&lt;/div&gt;&lt;div style=&quot;font-size: 16px&quot;&gt;&lt;b&gt;10.244.0.0/24&lt;/b&gt;&lt;span style=&quot;left: 208.599px ; top: 216.875px ; font-size: 15px ; font-family: sans-serif&quot;&gt; → &lt;/span&gt;&lt;span&gt;&lt;span class=&quot;char&quot;&gt;&lt;span class=&quot;vchar&quot; id=&quot;char-node&quot; style=&quot;font-family: &amp;#34;u1f800&amp;#34;&quot;&gt;&lt;/span&gt;&lt;/span&gt;&lt;/span&gt;&lt;font data-font-src=&quot;https://fonts.googleapis.com/css?family=PT+Sans+Narrow&quot; face=&quot;PT Sans Narrow&quot;&gt;.10&lt;/font&gt;&lt;br style=&quot;font-size: 16px&quot;&gt;&lt;/div&gt;" style="text;whiteSpace=wrap;html=1;fontSize=16;fontFamily=Montserrat;" parent="JmhUjh2bwEEavnvwu7f5-1" vertex="1">
          <mxGeometry x="502.63" y="406" width="240" height="84" as="geometry" />
        </mxCell>
        <mxCell id="OifUIiYzHp4yymYIvVrX-21" value="&lt;b&gt;10.244.2.8/32&lt;/b&gt;&lt;font face=&quot;PT Sans Narrow&quot;&gt; &lt;/font&gt;&lt;span style=&quot;left: 208.599px ; top: 216.875px ; font-size: 15px ; font-family: sans-serif&quot;&gt;→ &lt;/span&gt;&lt;font data-font-src=&quot;https://fonts.googleapis.com/css?family=PT+Sans+Narrow&quot; face=&quot;PT Sans Narrow&quot;&gt;vethY&lt;/font&gt;" style="text;whiteSpace=wrap;html=1;fontSize=16;fontFamily=Montserrat;" parent="JmhUjh2bwEEavnvwu7f5-1" vertex="1">
          <mxGeometry x="502.63" y="294" width="240" height="40" as="geometry" />
        </mxCell>
        <mxCell id="OifUIiYzHp4yymYIvVrX-32" value="&lt;div style=&quot;font-size: 16px&quot;&gt;&lt;b&gt;default&lt;/b&gt;&lt;span style=&quot;left: 208.599px ; top: 216.875px ; font-size: 15px ; font-family: sans-serif&quot;&gt; → &lt;/span&gt;&lt;font data-font-src=&quot;https://fonts.googleapis.com/css?family=PT+Sans+Narrow&quot; face=&quot;PT Sans Narrow&quot;&gt;172.18.0.1&lt;/font&gt;&lt;/div&gt;&lt;div style=&quot;font-size: 16px&quot;&gt;&lt;b&gt;10.244.2.0/24&lt;/b&gt;&lt;span style=&quot;left: 208.599px ; top: 216.875px ; font-size: 15px ; font-family: sans-serif&quot;&gt; → &lt;/span&gt;&lt;span&gt;&lt;span class=&quot;char&quot;&gt;&lt;span class=&quot;vchar&quot; id=&quot;char-node&quot; style=&quot;font-family: &amp;#34;u1f800&amp;#34;&quot;&gt;&lt;/span&gt;&lt;/span&gt;&lt;/span&gt;&lt;font data-font-src=&quot;https://fonts.googleapis.com/css?family=PT+Sans+Narrow&quot; face=&quot;PT Sans Narrow&quot;&gt;.11&lt;/font&gt;&lt;/div&gt;&lt;div style=&quot;font-size: 16px&quot;&gt;&lt;b&gt;10.244.1.0/24&lt;/b&gt;&lt;span style=&quot;left: 208.599px ; top: 216.875px ; font-size: 15px ; font-family: sans-serif&quot;&gt; → &lt;/span&gt;&lt;span&gt;&lt;span class=&quot;char&quot;&gt;&lt;span class=&quot;vchar&quot; id=&quot;char-node&quot; style=&quot;font-family: &amp;#34;u1f800&amp;#34;&quot;&gt;&lt;/span&gt;&lt;/span&gt;&lt;/span&gt;&lt;font data-font-src=&quot;https://fonts.googleapis.com/css?family=PT+Sans+Narrow&quot; face=&quot;PT Sans Narrow&quot;&gt;.12&lt;/font&gt;&lt;br style=&quot;font-size: 16px&quot;&gt;&lt;/div&gt;" style="text;whiteSpace=wrap;html=1;fontSize=16;fontFamily=Montserrat;" parent="JmhUjh2bwEEavnvwu7f5-1" vertex="1">
          <mxGeometry x="892.63" y="414" width="240" height="96" as="geometry" />
        </mxCell>
        <mxCell id="OifUIiYzHp4yymYIvVrX-33" value="&lt;b&gt;10.244.0.5/32&lt;/b&gt;&lt;span style=&quot;left: 208.599px ; top: 216.875px ; font-size: 15px ; font-family: sans-serif&quot;&gt; → &lt;/span&gt;&lt;span&gt;&lt;span class=&quot;char&quot;&gt;&lt;span class=&quot;vchar&quot; id=&quot;char-node&quot; style=&quot;font-family: &amp;#34;u1f800&amp;#34;&quot;&gt;&lt;/span&gt;&lt;/span&gt;&lt;/span&gt;&lt;font data-font-src=&quot;https://fonts.googleapis.com/css?family=PT+Sans+Narrow&quot; face=&quot;PT Sans Narrow&quot;&gt;vethZ&lt;/font&gt;" style="text;whiteSpace=wrap;html=1;fontSize=16;fontFamily=Montserrat;" parent="JmhUjh2bwEEavnvwu7f5-1" vertex="1">
          <mxGeometry x="892.63" y="282" width="240" height="40" as="geometry" />
        </mxCell>
        <mxCell id="XcrTc2OYWrk8huOPDssR-3" value="" style="group" parent="JmhUjh2bwEEavnvwu7f5-1" vertex="1" connectable="0">
          <mxGeometry x="560" y="649" width="60" height="40" as="geometry" />
        </mxCell>
        <mxCell id="XcrTc2OYWrk8huOPDssR-0" value="&lt;font color=&quot;#C65835&quot;&gt;&lt;b&gt;&lt;span&gt;L3&lt;/span&gt;&lt;/b&gt;&lt;/font&gt;" style="rounded=0;whiteSpace=wrap;html=1;labelBackgroundColor=none;fillColor=none;gradientColor=none;fontFamily=PT Sans Narrow;fontSize=16;strokeColor=none;fontColor=#666361;" parent="XcrTc2OYWrk8huOPDssR-3" vertex="1">
          <mxGeometry width="60" height="40" as="geometry" />
        </mxCell>
        <mxCell id="XcrTc2OYWrk8huOPDssR-1" value="" style="endArrow=classic;html=1;strokeColor=#666361;strokeWidth=2;fontFamily=PT Sans Narrow;fontSize=16;exitX=0;exitY=0.5;exitDx=0;exitDy=0;entryX=1;entryY=0.25;entryDx=0;entryDy=0;" parent="XcrTc2OYWrk8huOPDssR-3" source="XcrTc2OYWrk8huOPDssR-0" target="XcrTc2OYWrk8huOPDssR-0" edge="1">
          <mxGeometry width="50" height="50" relative="1" as="geometry">
            <mxPoint x="60" y="-40" as="sourcePoint" />
            <mxPoint x="110" y="-90" as="targetPoint" />
            <Array as="points">
              <mxPoint x="10" y="10" />
            </Array>
          </mxGeometry>
        </mxCell>
        <mxCell id="XcrTc2OYWrk8huOPDssR-2" value="" style="endArrow=classic;html=1;strokeColor=#666361;strokeWidth=2;fontFamily=PT Sans Narrow;fontSize=16;exitX=1;exitY=0.5;exitDx=0;exitDy=0;entryX=-0.008;entryY=0.794;entryDx=0;entryDy=0;entryPerimeter=0;" parent="XcrTc2OYWrk8huOPDssR-3" source="XcrTc2OYWrk8huOPDssR-0" target="XcrTc2OYWrk8huOPDssR-0" edge="1">
          <mxGeometry width="50" height="50" relative="1" as="geometry">
            <mxPoint x="130" y="5" as="sourcePoint" />
            <mxPoint x="10" y="20" as="targetPoint" />
            <Array as="points">
              <mxPoint x="50" y="32" />
            </Array>
          </mxGeometry>
        </mxCell>
        <mxCell id="XcrTc2OYWrk8huOPDssR-4" value="" style="group" parent="JmhUjh2bwEEavnvwu7f5-1" vertex="1" connectable="0">
          <mxGeometry x="180" y="340" width="60" height="40" as="geometry" />
        </mxCell>
        <mxCell id="XcrTc2OYWrk8huOPDssR-5" value="&lt;font color=&quot;#C65835&quot;&gt;&lt;b&gt;&lt;span&gt;L3&lt;/span&gt;&lt;/b&gt;&lt;/font&gt;" style="rounded=0;whiteSpace=wrap;html=1;labelBackgroundColor=none;fillColor=none;gradientColor=none;fontFamily=PT Sans Narrow;fontSize=16;strokeColor=none;fontColor=#666361;" parent="XcrTc2OYWrk8huOPDssR-4" vertex="1">
          <mxGeometry width="60" height="40" as="geometry" />
        </mxCell>
        <mxCell id="XcrTc2OYWrk8huOPDssR-6" value="" style="endArrow=classic;html=1;strokeColor=#666361;strokeWidth=2;fontFamily=PT Sans Narrow;fontSize=16;exitX=0;exitY=0.5;exitDx=0;exitDy=0;entryX=1;entryY=0.25;entryDx=0;entryDy=0;" parent="XcrTc2OYWrk8huOPDssR-4" source="XcrTc2OYWrk8huOPDssR-5" target="XcrTc2OYWrk8huOPDssR-5" edge="1">
          <mxGeometry width="50" height="50" relative="1" as="geometry">
            <mxPoint x="60" y="-40" as="sourcePoint" />
            <mxPoint x="110" y="-90" as="targetPoint" />
            <Array as="points">
              <mxPoint x="10" y="10" />
            </Array>
          </mxGeometry>
        </mxCell>
        <mxCell id="XcrTc2OYWrk8huOPDssR-7" value="" style="endArrow=classic;html=1;strokeColor=#666361;strokeWidth=2;fontFamily=PT Sans Narrow;fontSize=16;exitX=1;exitY=0.5;exitDx=0;exitDy=0;entryX=-0.008;entryY=0.794;entryDx=0;entryDy=0;entryPerimeter=0;" parent="XcrTc2OYWrk8huOPDssR-4" source="XcrTc2OYWrk8huOPDssR-5" target="XcrTc2OYWrk8huOPDssR-5" edge="1">
          <mxGeometry width="50" height="50" relative="1" as="geometry">
            <mxPoint x="130" y="5" as="sourcePoint" />
            <mxPoint x="10" y="20" as="targetPoint" />
            <Array as="points">
              <mxPoint x="50" y="32" />
            </Array>
          </mxGeometry>
        </mxCell>
        <mxCell id="XcrTc2OYWrk8huOPDssR-8" value="" style="group" parent="JmhUjh2bwEEavnvwu7f5-1" vertex="1" connectable="0">
          <mxGeometry x="560" y="340" width="60" height="40" as="geometry" />
        </mxCell>
        <mxCell id="XcrTc2OYWrk8huOPDssR-9" value="&lt;font color=&quot;#C65835&quot;&gt;&lt;b&gt;&lt;span&gt;L3&lt;/span&gt;&lt;/b&gt;&lt;/font&gt;" style="rounded=0;whiteSpace=wrap;html=1;labelBackgroundColor=none;fillColor=none;gradientColor=none;fontFamily=PT Sans Narrow;fontSize=16;strokeColor=none;fontColor=#666361;" parent="XcrTc2OYWrk8huOPDssR-8" vertex="1">
          <mxGeometry width="60" height="40" as="geometry" />
        </mxCell>
        <mxCell id="XcrTc2OYWrk8huOPDssR-10" value="" style="endArrow=classic;html=1;strokeColor=#666361;strokeWidth=2;fontFamily=PT Sans Narrow;fontSize=16;exitX=0;exitY=0.5;exitDx=0;exitDy=0;entryX=1;entryY=0.25;entryDx=0;entryDy=0;" parent="XcrTc2OYWrk8huOPDssR-8" source="XcrTc2OYWrk8huOPDssR-9" target="XcrTc2OYWrk8huOPDssR-9" edge="1">
          <mxGeometry width="50" height="50" relative="1" as="geometry">
            <mxPoint x="60" y="-40" as="sourcePoint" />
            <mxPoint x="110" y="-90" as="targetPoint" />
            <Array as="points">
              <mxPoint x="10" y="10" />
            </Array>
          </mxGeometry>
        </mxCell>
        <mxCell id="XcrTc2OYWrk8huOPDssR-11" value="" style="endArrow=classic;html=1;strokeColor=#666361;strokeWidth=2;fontFamily=PT Sans Narrow;fontSize=16;exitX=1;exitY=0.5;exitDx=0;exitDy=0;entryX=-0.008;entryY=0.794;entryDx=0;entryDy=0;entryPerimeter=0;" parent="XcrTc2OYWrk8huOPDssR-8" source="XcrTc2OYWrk8huOPDssR-9" target="XcrTc2OYWrk8huOPDssR-9" edge="1">
          <mxGeometry width="50" height="50" relative="1" as="geometry">
            <mxPoint x="130" y="5" as="sourcePoint" />
            <mxPoint x="10" y="20" as="targetPoint" />
            <Array as="points">
              <mxPoint x="50" y="32" />
            </Array>
          </mxGeometry>
        </mxCell>
        <mxCell id="XcrTc2OYWrk8huOPDssR-12" value="" style="group" parent="JmhUjh2bwEEavnvwu7f5-1" vertex="1" connectable="0">
          <mxGeometry x="950" y="340" width="60" height="40" as="geometry" />
        </mxCell>
        <mxCell id="XcrTc2OYWrk8huOPDssR-13" value="&lt;font color=&quot;#C65835&quot;&gt;&lt;b&gt;&lt;span&gt;L3&lt;/span&gt;&lt;/b&gt;&lt;/font&gt;" style="rounded=0;whiteSpace=wrap;html=1;labelBackgroundColor=none;fillColor=none;gradientColor=none;fontFamily=PT Sans Narrow;fontSize=16;strokeColor=none;fontColor=#666361;" parent="XcrTc2OYWrk8huOPDssR-12" vertex="1">
          <mxGeometry width="60" height="40" as="geometry" />
        </mxCell>
        <mxCell id="XcrTc2OYWrk8huOPDssR-14" value="" style="endArrow=classic;html=1;strokeColor=#666361;strokeWidth=2;fontFamily=PT Sans Narrow;fontSize=16;exitX=0;exitY=0.5;exitDx=0;exitDy=0;entryX=1;entryY=0.25;entryDx=0;entryDy=0;" parent="XcrTc2OYWrk8huOPDssR-12" source="XcrTc2OYWrk8huOPDssR-13" target="XcrTc2OYWrk8huOPDssR-13" edge="1">
          <mxGeometry width="50" height="50" relative="1" as="geometry">
            <mxPoint x="60" y="-40" as="sourcePoint" />
            <mxPoint x="110" y="-90" as="targetPoint" />
            <Array as="points">
              <mxPoint x="10" y="10" />
            </Array>
          </mxGeometry>
        </mxCell>
        <mxCell id="XcrTc2OYWrk8huOPDssR-15" value="" style="endArrow=classic;html=1;strokeColor=#666361;strokeWidth=2;fontFamily=PT Sans Narrow;fontSize=16;exitX=1;exitY=0.5;exitDx=0;exitDy=0;entryX=-0.008;entryY=0.794;entryDx=0;entryDy=0;entryPerimeter=0;" parent="XcrTc2OYWrk8huOPDssR-12" source="XcrTc2OYWrk8huOPDssR-13" target="XcrTc2OYWrk8huOPDssR-13" edge="1">
          <mxGeometry width="50" height="50" relative="1" as="geometry">
            <mxPoint x="130" y="5" as="sourcePoint" />
            <mxPoint x="10" y="20" as="targetPoint" />
            <Array as="points">
              <mxPoint x="50" y="32" />
            </Array>
          </mxGeometry>
        </mxCell>
      </root>
    </mxGraphModel>
  </diagram>
  <diagram name="Flannel" id="jdjgs82ws8dfcGyB_vlg">
    <mxGraphModel dx="1422" dy="729" grid="1" gridSize="10" guides="1" tooltips="1" connect="1" arrows="1" fold="1" page="1" pageScale="1" pageWidth="1169" pageHeight="827" math="0" shadow="0" extFonts="pt sans narrow^https://fonts.googleapis.com/css?family=pt+sans+narrow|montserrat^https://fonts.googleapis.com/css?family=montserrat">
      <root>
        <mxCell id="T1iK7mB77M15bipoznIS-0" />
        <mxCell id="T1iK7mB77M15bipoznIS-1" parent="T1iK7mB77M15bipoznIS-0" />
        <mxCell id="T1iK7mB77M15bipoznIS-2" value="Node: worker" style="whiteSpace=wrap;html=1;rounded=1;arcSize=5;fontFamily=Montserrat;fontSource=https%3A%2F%2Ffonts.googleapis.com%2Fcss%3Ffamily%3DMontserrat;fontSize=22;verticalAlign=top;" parent="T1iK7mB77M15bipoznIS-1" vertex="1">
          <mxGeometry x="50" y="40" width="340" height="470" as="geometry" />
        </mxCell>
        <mxCell id="T1iK7mB77M15bipoznIS-3" value="&lt;div&gt;&lt;font face=&quot;Montserrat&quot;&gt;eth0&lt;/font&gt;&lt;/div&gt;&lt;div&gt;&lt;font face=&quot;Montserrat&quot;&gt;.4&lt;br&gt;&lt;/font&gt;&lt;/div&gt;" style="rounded=1;whiteSpace=wrap;html=1;fontSize=16;fontFamily=PT Sans Narrow;fontColor=#FFFFFF;strokeColor=none;fillColor=#c65835;" parent="T1iK7mB77M15bipoznIS-1" vertex="1">
          <mxGeometry x="170" y="485" width="80" height="40" as="geometry" />
        </mxCell>
        <mxCell id="T1iK7mB77M15bipoznIS-4" value="Node: worker2" style="whiteSpace=wrap;html=1;rounded=1;arcSize=5;fontFamily=Montserrat;fontSource=https%3A%2F%2Ffonts.googleapis.com%2Fcss%3Ffamily%3DMontserrat;fontSize=22;verticalAlign=top;" parent="T1iK7mB77M15bipoznIS-1" vertex="1">
          <mxGeometry x="420" y="40" width="340" height="470" as="geometry" />
        </mxCell>
        <mxCell id="T1iK7mB77M15bipoznIS-5" value="Node: control-plane" style="whiteSpace=wrap;html=1;rounded=1;arcSize=5;fontFamily=Montserrat;fontSource=https%3A%2F%2Ffonts.googleapis.com%2Fcss%3Ffamily%3DMontserrat;fontSize=22;verticalAlign=top;" parent="T1iK7mB77M15bipoznIS-1" vertex="1">
          <mxGeometry x="800" y="40" width="340" height="470" as="geometry" />
        </mxCell>
        <mxCell id="T1iK7mB77M15bipoznIS-6" value="" style="group" parent="T1iK7mB77M15bipoznIS-1" vertex="1" connectable="0">
          <mxGeometry x="560.5" y="589" width="80" height="80" as="geometry" />
        </mxCell>
        <mxCell id="T1iK7mB77M15bipoznIS-7" value="&lt;div&gt;&lt;font face=&quot;Montserrat&quot;&gt;eth0&lt;/font&gt;&lt;/div&gt;&lt;div&gt;&lt;font face=&quot;Montserrat&quot;&gt;.2&lt;br&gt;&lt;/font&gt;&lt;/div&gt;" style="rounded=1;whiteSpace=wrap;html=1;fontSize=16;fontFamily=PT Sans Narrow;fontColor=#FFFFFF;strokeColor=none;fillColor=#c65835;" parent="T1iK7mB77M15bipoznIS-1" vertex="1">
          <mxGeometry x="550" y="485" width="80" height="40" as="geometry" />
        </mxCell>
        <mxCell id="T1iK7mB77M15bipoznIS-8" value="&lt;div&gt;&lt;font face=&quot;Montserrat&quot;&gt;eth0&lt;/font&gt;&lt;/div&gt;&lt;div&gt;&lt;font face=&quot;Montserrat&quot;&gt;.3&lt;/font&gt;&lt;/div&gt;" style="rounded=1;whiteSpace=wrap;html=1;fontSize=16;fontFamily=PT Sans Narrow;fontColor=#FFFFFF;strokeColor=none;fillColor=#c65835;" parent="T1iK7mB77M15bipoznIS-1" vertex="1">
          <mxGeometry x="940" y="485" width="80" height="40" as="geometry" />
        </mxCell>
        <mxCell id="T1iK7mB77M15bipoznIS-9" value="" style="endArrow=none;dashed=1;html=1;fontFamily=Montserrat;fontSize=22;" parent="T1iK7mB77M15bipoznIS-1" edge="1">
          <mxGeometry width="50" height="50" relative="1" as="geometry">
            <mxPoint x="80" y="569" as="sourcePoint" />
            <mxPoint x="1120" y="569" as="targetPoint" />
          </mxGeometry>
        </mxCell>
        <mxCell id="T1iK7mB77M15bipoznIS-10" value="&lt;div&gt;&lt;font data-font-src=&quot;https://fonts.googleapis.com/css?family=Montserrat&quot; style=&quot;font-size: 20px&quot; face=&quot;Montserrat&quot;&gt;Host OS &lt;br&gt;&lt;/font&gt;&lt;/div&gt;&lt;div&gt;&lt;font data-font-src=&quot;https://fonts.googleapis.com/css?family=Montserrat&quot; style=&quot;font-size: 20px&quot; face=&quot;Montserrat&quot;&gt;network namespace&lt;/font&gt;&lt;/div&gt;" style="text;whiteSpace=wrap;html=1;fontSize=22;fontFamily=Montserrat;" parent="T1iK7mB77M15bipoznIS-1" vertex="1">
          <mxGeometry x="80" y="569" width="240" height="40" as="geometry" />
        </mxCell>
        <mxCell id="T1iK7mB77M15bipoznIS-11" value="&lt;font style=&quot;font-size: 17px&quot; color=&quot;#EEAB96&quot;&gt;kind:&lt;/font&gt; &lt;font style=&quot;font-size: 17px&quot; face=&quot;Montserrat&quot;&gt;172.18.0.1/16&lt;/font&gt;" style="rounded=1;whiteSpace=wrap;html=1;fontFamily=PT Sans Narrow;fontSize=17;strokeColor=none;fillColor=#c65835;fontSource=https%3A%2F%2Ffonts.googleapis.com%2Fcss%3Ffamily%3DPT%2BSans%2BNarrow;fontColor=#FFFFFF;" parent="T1iK7mB77M15bipoznIS-1" vertex="1">
          <mxGeometry x="502.63" y="609" width="174.75" height="40" as="geometry" />
        </mxCell>
        <mxCell id="T1iK7mB77M15bipoznIS-12" value="&lt;font style=&quot;font-size: 17px&quot; color=&quot;#AEC0E0&quot;&gt;cbr0:&lt;/font&gt; &lt;font face=&quot;Montserrat&quot;&gt;10.244.1.1&lt;/font&gt;&lt;font style=&quot;font-size: 17px&quot; face=&quot;Montserrat&quot;&gt;/24&lt;/font&gt;" style="rounded=1;whiteSpace=wrap;html=1;fontFamily=PT Sans Narrow;fontSize=17;strokeColor=none;fontSource=https%3A%2F%2Ffonts.googleapis.com%2Fcss%3Ffamily%3DPT%2BSans%2BNarrow;fontColor=#FFFFFF;fillColor=#496495;" parent="T1iK7mB77M15bipoznIS-1" vertex="1">
          <mxGeometry x="122.61999999999999" y="240" width="174.75" height="40" as="geometry" />
        </mxCell>
        <mxCell id="T1iK7mB77M15bipoznIS-13" value="&lt;font style=&quot;font-size: 17px&quot; color=&quot;#AEC0E0&quot;&gt;cbr0:&lt;/font&gt; &lt;font face=&quot;Montserrat&quot;&gt;10.244.2.1&lt;/font&gt;&lt;font style=&quot;font-size: 17px&quot; face=&quot;Montserrat&quot;&gt;/24&lt;/font&gt;" style="rounded=1;whiteSpace=wrap;html=1;fontFamily=PT Sans Narrow;fontSize=17;strokeColor=none;fontSource=https%3A%2F%2Ffonts.googleapis.com%2Fcss%3Ffamily%3DPT%2BSans%2BNarrow;fontColor=#FFFFFF;fillColor=#496495;" parent="T1iK7mB77M15bipoznIS-1" vertex="1">
          <mxGeometry x="502.63" y="240" width="174.75" height="40" as="geometry" />
        </mxCell>
        <mxCell id="T1iK7mB77M15bipoznIS-14" value="&lt;font style=&quot;font-size: 17px&quot; color=&quot;#AEC0E0&quot;&gt;cbr0:&lt;/font&gt; &lt;font face=&quot;Montserrat&quot;&gt;10.244.0.1&lt;/font&gt;&lt;font style=&quot;font-size: 17px&quot; face=&quot;Montserrat&quot;&gt;/24&lt;/font&gt;" style="rounded=1;whiteSpace=wrap;html=1;fontFamily=PT Sans Narrow;fontSize=17;strokeColor=none;fontSource=https%3A%2F%2Ffonts.googleapis.com%2Fcss%3Ffamily%3DPT%2BSans%2BNarrow;fontColor=#FFFFFF;fillColor=#496495;" parent="T1iK7mB77M15bipoznIS-1" vertex="1">
          <mxGeometry x="892.63" y="240" width="174.75" height="40" as="geometry" />
        </mxCell>
        <mxCell id="T1iK7mB77M15bipoznIS-15" value="&lt;div style=&quot;font-size: 18px&quot;&gt;Pod-1 NetNS&lt;/div&gt;&lt;div style=&quot;font-size: 18px&quot;&gt;&lt;br style=&quot;font-size: 18px&quot;&gt;&lt;/div&gt;&lt;div style=&quot;font-size: 18px&quot;&gt;&lt;font style=&quot;font-size: 16px&quot;&gt;&lt;b&gt;default&amp;nbsp;&lt;/b&gt;&lt;/font&gt;&lt;span style=&quot;font-family: sans-serif ; font-size: 15px ; text-align: left&quot;&gt;→&lt;/span&gt;&lt;span style=&quot;font-size: 16px ; font-family: &amp;#34;pt sans narrow&amp;#34;&quot;&gt;&amp;nbsp;10.244.1.1&lt;/span&gt;&lt;/div&gt;" style="whiteSpace=wrap;html=1;rounded=1;arcSize=5;fontFamily=Montserrat;fontSource=https%3A%2F%2Ffonts.googleapis.com%2Fcss%3Ffamily%3DMontserrat;fontSize=22;verticalAlign=top;" parent="T1iK7mB77M15bipoznIS-1" vertex="1">
          <mxGeometry x="100" y="80" width="220" height="121" as="geometry" />
        </mxCell>
        <mxCell id="T1iK7mB77M15bipoznIS-21" value="" style="endArrow=none;dashed=1;html=1;fontFamily=Montserrat;fontSize=22;exitX=0;exitY=0.5;exitDx=0;exitDy=0;entryX=1;entryY=0.5;entryDx=0;entryDy=0;" parent="T1iK7mB77M15bipoznIS-1" edge="1">
          <mxGeometry width="50" height="50" relative="1" as="geometry">
            <mxPoint x="50" y="228.5" as="sourcePoint" />
            <mxPoint x="390" y="228.5" as="targetPoint" />
          </mxGeometry>
        </mxCell>
        <mxCell id="T1iK7mB77M15bipoznIS-22" value="" style="endArrow=none;dashed=1;html=1;fontFamily=Montserrat;fontSize=22;exitX=0;exitY=0.5;exitDx=0;exitDy=0;entryX=1;entryY=0.5;entryDx=0;entryDy=0;" parent="T1iK7mB77M15bipoznIS-1" edge="1">
          <mxGeometry width="50" height="50" relative="1" as="geometry">
            <mxPoint x="420" y="228.5" as="sourcePoint" />
            <mxPoint x="760" y="228.5" as="targetPoint" />
          </mxGeometry>
        </mxCell>
        <mxCell id="T1iK7mB77M15bipoznIS-23" value="" style="endArrow=none;dashed=1;html=1;fontFamily=Montserrat;fontSize=22;exitX=0;exitY=0.5;exitDx=0;exitDy=0;entryX=1;entryY=0.5;entryDx=0;entryDy=0;" parent="T1iK7mB77M15bipoznIS-1" edge="1">
          <mxGeometry width="50" height="50" relative="1" as="geometry">
            <mxPoint x="800" y="228.5" as="sourcePoint" />
            <mxPoint x="1140" y="228.5" as="targetPoint" />
          </mxGeometry>
        </mxCell>
        <mxCell id="T1iK7mB77M15bipoznIS-24" value="" style="endArrow=oval;html=1;fontFamily=Montserrat;fontSize=22;entryX=0.5;entryY=1;entryDx=0;entryDy=0;edgeStyle=orthogonalEdgeStyle;exitX=0;exitY=0.5;exitDx=0;exitDy=0;curved=1;startArrow=oval;startFill=1;endFill=1;strokeWidth=2;strokeColor=#666361;" parent="T1iK7mB77M15bipoznIS-1" source="T1iK7mB77M15bipoznIS-11" target="T1iK7mB77M15bipoznIS-3" edge="1">
          <mxGeometry width="50" height="50" relative="1" as="geometry">
            <mxPoint x="561" y="560" as="sourcePoint" />
            <mxPoint x="490" y="541" as="targetPoint" />
          </mxGeometry>
        </mxCell>
        <mxCell id="T1iK7mB77M15bipoznIS-25" value="" style="endArrow=oval;html=1;fontFamily=Montserrat;fontSize=22;entryX=0.5;entryY=1;entryDx=0;entryDy=0;exitX=0.5;exitY=0;exitDx=0;exitDy=0;strokeColor=#666361;startArrow=oval;startFill=1;endFill=1;strokeWidth=2;" parent="T1iK7mB77M15bipoznIS-1" source="T1iK7mB77M15bipoznIS-11" target="T1iK7mB77M15bipoznIS-7" edge="1">
          <mxGeometry width="50" height="50" relative="1" as="geometry">
            <mxPoint x="600.5" y="520.5" as="sourcePoint" />
            <mxPoint x="220" y="481" as="targetPoint" />
          </mxGeometry>
        </mxCell>
        <mxCell id="T1iK7mB77M15bipoznIS-26" value="" style="endArrow=oval;html=1;fontFamily=Montserrat;fontSize=22;entryX=0.5;entryY=1;entryDx=0;entryDy=0;exitX=1;exitY=0.5;exitDx=0;exitDy=0;edgeStyle=orthogonalEdgeStyle;curved=1;strokeColor=#666361;startArrow=oval;startFill=1;endFill=1;strokeWidth=2;" parent="T1iK7mB77M15bipoznIS-1" source="T1iK7mB77M15bipoznIS-11" target="T1iK7mB77M15bipoznIS-8" edge="1">
          <mxGeometry width="50" height="50" relative="1" as="geometry">
            <mxPoint x="640" y="560" as="sourcePoint" />
            <mxPoint x="610" y="481" as="targetPoint" />
          </mxGeometry>
        </mxCell>
        <mxCell id="T1iK7mB77M15bipoznIS-27" value="&lt;div style=&quot;font-size: 16px&quot;&gt;&lt;b&gt;10.244.0.0&lt;/b&gt;&lt;font style=&quot;font-size: 16px&quot;&gt;&lt;span style=&quot;left: 208.599px ; top: 216.875px&quot;&gt; &lt;font face=&quot;pt sans narrow&quot;&gt;→ &lt;/font&gt;&lt;/span&gt;&lt;font face=&quot;pt sans narrow&quot;&gt;&lt;span class=&quot;char&quot;&gt;&lt;span class=&quot;vchar&quot; id=&quot;char-node&quot;&gt;&lt;/span&gt;&lt;/span&gt;MAC-X&amp;nbsp;&lt;/font&gt;&lt;span style=&quot;font-family: &amp;#34;pt sans narrow&amp;#34;&quot;&gt;→&lt;/span&gt;&lt;font face=&quot;pt sans narrow&quot;&gt;&amp;nbsp;172.18.0.3&lt;/font&gt;&lt;/font&gt;&lt;/div&gt;&lt;b&gt;10.244.2.0&lt;/b&gt;&lt;span style=&quot;left: 208.599px ; top: 216.875px&quot;&gt;&amp;nbsp;&lt;font face=&quot;pt sans narrow&quot;&gt;→&amp;nbsp;&lt;/font&gt;&lt;/span&gt;&lt;font face=&quot;pt sans narrow&quot;&gt;&lt;span class=&quot;char&quot;&gt;&lt;span class=&quot;vchar&quot; id=&quot;char-node&quot;&gt;&lt;/span&gt;&lt;/span&gt;MAC-Y&amp;nbsp;&lt;/font&gt;&lt;span style=&quot;font-family: &amp;#34;pt sans narrow&amp;#34;&quot;&gt;→&lt;/span&gt;&lt;font face=&quot;pt sans narrow&quot;&gt;&amp;nbsp;172.18.0.2&lt;br&gt;&lt;/font&gt;" style="text;whiteSpace=wrap;html=1;fontSize=16;fontFamily=Montserrat;" parent="T1iK7mB77M15bipoznIS-1" vertex="1">
          <mxGeometry x="80" y="420" width="260" height="50" as="geometry" />
        </mxCell>
        <mxCell id="T1iK7mB77M15bipoznIS-28" value="" style="endArrow=classic;html=1;strokeWidth=2;fontFamily=Montserrat;fontSize=18;strokeColor=#C65835;" parent="T1iK7mB77M15bipoznIS-1" edge="1">
          <mxGeometry width="50" height="50" relative="1" as="geometry">
            <mxPoint x="339.76" y="414" as="sourcePoint" />
            <mxPoint x="339.76" y="494" as="targetPoint" />
            <Array as="points">
              <mxPoint x="339.76" y="450" />
            </Array>
          </mxGeometry>
        </mxCell>
        <mxCell id="T1iK7mB77M15bipoznIS-39" value="" style="group" parent="T1iK7mB77M15bipoznIS-1" vertex="1" connectable="0">
          <mxGeometry x="560" y="649" width="60" height="40" as="geometry" />
        </mxCell>
        <mxCell id="T1iK7mB77M15bipoznIS-40" value="&lt;font color=&quot;#C65835&quot;&gt;&lt;b&gt;&lt;span&gt;L3&lt;/span&gt;&lt;/b&gt;&lt;/font&gt;" style="rounded=0;whiteSpace=wrap;html=1;labelBackgroundColor=none;fillColor=none;gradientColor=none;fontFamily=PT Sans Narrow;fontSize=16;strokeColor=none;fontColor=#666361;" parent="T1iK7mB77M15bipoznIS-39" vertex="1">
          <mxGeometry width="60" height="40" as="geometry" />
        </mxCell>
        <mxCell id="T1iK7mB77M15bipoznIS-41" value="" style="endArrow=classic;html=1;strokeColor=#666361;strokeWidth=2;fontFamily=PT Sans Narrow;fontSize=16;exitX=0;exitY=0.5;exitDx=0;exitDy=0;entryX=1;entryY=0.25;entryDx=0;entryDy=0;" parent="T1iK7mB77M15bipoznIS-39" source="T1iK7mB77M15bipoznIS-40" target="T1iK7mB77M15bipoznIS-40" edge="1">
          <mxGeometry width="50" height="50" relative="1" as="geometry">
            <mxPoint x="60" y="-40" as="sourcePoint" />
            <mxPoint x="110" y="-90" as="targetPoint" />
            <Array as="points">
              <mxPoint x="10" y="10" />
            </Array>
          </mxGeometry>
        </mxCell>
        <mxCell id="T1iK7mB77M15bipoznIS-42" value="" style="endArrow=classic;html=1;strokeColor=#666361;strokeWidth=2;fontFamily=PT Sans Narrow;fontSize=16;exitX=1;exitY=0.5;exitDx=0;exitDy=0;entryX=-0.008;entryY=0.794;entryDx=0;entryDy=0;entryPerimeter=0;" parent="T1iK7mB77M15bipoznIS-39" source="T1iK7mB77M15bipoznIS-40" target="T1iK7mB77M15bipoznIS-40" edge="1">
          <mxGeometry width="50" height="50" relative="1" as="geometry">
            <mxPoint x="130" y="5" as="sourcePoint" />
            <mxPoint x="10" y="20" as="targetPoint" />
            <Array as="points">
              <mxPoint x="50" y="32" />
            </Array>
          </mxGeometry>
        </mxCell>
        <mxCell id="T1iK7mB77M15bipoznIS-43" value="" style="group" parent="T1iK7mB77M15bipoznIS-1" vertex="1" connectable="0">
          <mxGeometry x="60" y="310" width="60" height="40" as="geometry" />
        </mxCell>
        <mxCell id="T1iK7mB77M15bipoznIS-44" value="&lt;font color=&quot;#C65835&quot;&gt;&lt;b&gt;&lt;span&gt;L3&lt;/span&gt;&lt;/b&gt;&lt;/font&gt;" style="rounded=0;whiteSpace=wrap;html=1;labelBackgroundColor=none;fillColor=none;gradientColor=none;fontFamily=PT Sans Narrow;fontSize=16;strokeColor=none;fontColor=#666361;" parent="T1iK7mB77M15bipoznIS-43" vertex="1">
          <mxGeometry width="60" height="40" as="geometry" />
        </mxCell>
        <mxCell id="T1iK7mB77M15bipoznIS-45" value="" style="endArrow=classic;html=1;strokeColor=#666361;strokeWidth=2;fontFamily=PT Sans Narrow;fontSize=16;exitX=0;exitY=0.5;exitDx=0;exitDy=0;entryX=1;entryY=0.25;entryDx=0;entryDy=0;" parent="T1iK7mB77M15bipoznIS-43" source="T1iK7mB77M15bipoznIS-44" target="T1iK7mB77M15bipoznIS-44" edge="1">
          <mxGeometry width="50" height="50" relative="1" as="geometry">
            <mxPoint x="60" y="-40" as="sourcePoint" />
            <mxPoint x="110" y="-90" as="targetPoint" />
            <Array as="points">
              <mxPoint x="10" y="10" />
            </Array>
          </mxGeometry>
        </mxCell>
        <mxCell id="T1iK7mB77M15bipoznIS-46" value="" style="endArrow=classic;html=1;strokeColor=#666361;strokeWidth=2;fontFamily=PT Sans Narrow;fontSize=16;exitX=1;exitY=0.5;exitDx=0;exitDy=0;entryX=-0.008;entryY=0.794;entryDx=0;entryDy=0;entryPerimeter=0;" parent="T1iK7mB77M15bipoznIS-43" source="T1iK7mB77M15bipoznIS-44" target="T1iK7mB77M15bipoznIS-44" edge="1">
          <mxGeometry width="50" height="50" relative="1" as="geometry">
            <mxPoint x="130" y="5" as="sourcePoint" />
            <mxPoint x="10" y="20" as="targetPoint" />
            <Array as="points">
              <mxPoint x="50" y="32" />
            </Array>
          </mxGeometry>
        </mxCell>
        <mxCell id="merpCIcpzivhtwV0OcQN-0" value="&lt;font style=&quot;font-size: 17px&quot; color=&quot;#AEC0E0&quot;&gt;flannel.1:&lt;/font&gt; &lt;font face=&quot;Montserrat&quot;&gt;10.244.1.0&lt;/font&gt;&lt;font style=&quot;font-size: 17px&quot; face=&quot;Montserrat&quot;&gt;/32&lt;/font&gt;" style="rounded=1;whiteSpace=wrap;html=1;fontFamily=PT Sans Narrow;fontSize=17;strokeColor=none;fontSource=https%3A%2F%2Ffonts.googleapis.com%2Fcss%3Ffamily%3DPT%2BSans%2BNarrow;fontColor=#FFFFFF;fillColor=#8F3C77;" parent="T1iK7mB77M15bipoznIS-1" vertex="1">
          <mxGeometry x="122.63000000000001" y="370" width="174.75" height="40" as="geometry" />
        </mxCell>
        <mxCell id="merpCIcpzivhtwV0OcQN-1" value="&lt;font style=&quot;font-size: 17px&quot; color=&quot;#AEC0E0&quot;&gt;eth0:&lt;/font&gt; &lt;font face=&quot;Montserrat&quot;&gt;10.244.1.6&lt;/font&gt;&lt;font style=&quot;font-size: 17px&quot; face=&quot;Montserrat&quot;&gt;/24&lt;/font&gt;" style="rounded=1;whiteSpace=wrap;html=1;fontFamily=PT Sans Narrow;fontSize=17;strokeColor=none;fontSource=https%3A%2F%2Ffonts.googleapis.com%2Fcss%3Ffamily%3DPT%2BSans%2BNarrow;fontColor=#FFFFFF;fillColor=#496495;" parent="T1iK7mB77M15bipoznIS-1" vertex="1">
          <mxGeometry x="122.63000000000001" y="150" width="174.75" height="40" as="geometry" />
        </mxCell>
        <mxCell id="T1iK7mB77M15bipoznIS-18" value="" style="endArrow=oval;html=1;fontFamily=Montserrat;fontSize=22;entryX=0.5;entryY=1;entryDx=0;entryDy=0;exitX=0.5;exitY=0;exitDx=0;exitDy=0;startArrow=oval;startFill=1;endFill=1;strokeWidth=2;strokeColor=#292E38;" parent="T1iK7mB77M15bipoznIS-1" source="T1iK7mB77M15bipoznIS-12" target="merpCIcpzivhtwV0OcQN-1" edge="1">
          <mxGeometry width="50" height="50" relative="1" as="geometry">
            <mxPoint x="610.0050000000001" y="550" as="sourcePoint" />
            <mxPoint x="610" y="480.9999999999998" as="targetPoint" />
          </mxGeometry>
        </mxCell>
        <mxCell id="merpCIcpzivhtwV0OcQN-2" value="&lt;div style=&quot;font-size: 16px&quot;&gt;&lt;b&gt;default&lt;/b&gt;&lt;span style=&quot;left: 208.599px ; top: 216.875px ; font-size: 15px ; font-family: sans-serif&quot;&gt; → &lt;/span&gt;&lt;span&gt;&lt;span class=&quot;char&quot;&gt;&lt;span class=&quot;vchar&quot; id=&quot;char-node&quot; style=&quot;font-family: &amp;#34;u1f800&amp;#34;&quot;&gt;&lt;/span&gt;&lt;/span&gt;&lt;/span&gt;&lt;font face=&quot;PT Sans Narrow&quot;&gt;172.18.0.1&lt;/font&gt;&lt;/div&gt;&lt;div style=&quot;font-size: 16px&quot;&gt;&lt;b&gt;10.244.2.0/24&lt;/b&gt;&lt;span style=&quot;left: 208.599px ; top: 216.875px ; font-size: 15px ; font-family: sans-serif&quot;&gt;&amp;nbsp;→&amp;nbsp;&lt;/span&gt;&lt;span class=&quot;char&quot;&gt;&lt;span class=&quot;vchar&quot; id=&quot;char-node&quot; style=&quot;font-family: &amp;#34;u1f800&amp;#34;&quot;&gt;&lt;/span&gt;&lt;/span&gt;&lt;font face=&quot;PT Sans Narrow&quot;&gt;10.244.2.0&lt;/font&gt;&lt;font face=&quot;PT Sans Narrow&quot;&gt;&lt;br&gt;&lt;/font&gt;&lt;/div&gt;&lt;div style=&quot;font-size: 16px&quot;&gt;&lt;/div&gt;&lt;b&gt;10.244.0.0/24&lt;/b&gt;&lt;span style=&quot;left: 208.599px ; top: 216.875px ; font-size: 15px ; font-family: sans-serif&quot;&gt;&amp;nbsp;→&amp;nbsp;&lt;/span&gt;&lt;span class=&quot;char&quot;&gt;&lt;span class=&quot;vchar&quot; id=&quot;char-node&quot; style=&quot;font-family: &amp;#34;u1f800&amp;#34;&quot;&gt;&lt;/span&gt;&lt;/span&gt;&lt;font face=&quot;PT Sans Narrow&quot;&gt;10.244.0.0&lt;/font&gt;&lt;span style=&quot;font-family: &amp;#34;pt sans narrow&amp;#34;&quot;&gt;&lt;br&gt;&lt;/span&gt;" style="text;html=1;fontSize=16;fontFamily=Montserrat;" parent="T1iK7mB77M15bipoznIS-1" vertex="1">
          <mxGeometry x="130" y="290" width="190" height="66" as="geometry" />
        </mxCell>
        <mxCell id="merpCIcpzivhtwV0OcQN-3" value="" style="endArrow=classic;html=1;strokeWidth=2;fontFamily=Montserrat;fontSize=18;strokeColor=#C65835;" parent="T1iK7mB77M15bipoznIS-1" edge="1">
          <mxGeometry width="50" height="50" relative="1" as="geometry">
            <mxPoint x="340.00000000000006" y="294" as="sourcePoint" />
            <mxPoint x="340.00000000000006" y="374" as="targetPoint" />
          </mxGeometry>
        </mxCell>
        <mxCell id="merpCIcpzivhtwV0OcQN-4" value="&lt;div style=&quot;font-size: 18px&quot;&gt;Pod-2 NetNS&lt;/div&gt;&lt;div style=&quot;font-size: 18px&quot;&gt;&lt;br style=&quot;font-size: 18px&quot;&gt;&lt;/div&gt;&lt;div style=&quot;font-size: 18px&quot;&gt;&lt;font style=&quot;font-size: 16px&quot;&gt;&lt;b&gt;default&amp;nbsp;&lt;/b&gt;&lt;/font&gt;&lt;span style=&quot;font-family: sans-serif ; font-size: 15px ; text-align: left&quot;&gt;→&lt;/span&gt;&lt;span style=&quot;font-size: 16px ; font-family: &amp;#34;pt sans narrow&amp;#34;&quot;&gt;&amp;nbsp;10.244.2.1&lt;/span&gt;&lt;/div&gt;" style="whiteSpace=wrap;html=1;rounded=1;arcSize=5;fontFamily=Montserrat;fontSource=https%3A%2F%2Ffonts.googleapis.com%2Fcss%3Ffamily%3DMontserrat;fontSize=22;verticalAlign=top;" parent="T1iK7mB77M15bipoznIS-1" vertex="1">
          <mxGeometry x="480" y="80" width="220" height="121" as="geometry" />
        </mxCell>
        <mxCell id="merpCIcpzivhtwV0OcQN-5" value="&lt;div style=&quot;font-size: 18px&quot;&gt;Pod-3 NetNS&lt;/div&gt;&lt;div style=&quot;font-size: 18px&quot;&gt;&lt;br style=&quot;font-size: 18px&quot;&gt;&lt;/div&gt;&lt;div style=&quot;font-size: 18px&quot;&gt;&lt;font style=&quot;font-size: 16px&quot;&gt;&lt;b&gt;default&amp;nbsp;&lt;/b&gt;&lt;/font&gt;&lt;span style=&quot;font-family: sans-serif ; font-size: 15px ; text-align: left&quot;&gt;→&lt;/span&gt;&lt;span style=&quot;font-size: 16px ; font-family: &amp;#34;pt sans narrow&amp;#34;&quot;&gt;&amp;nbsp;10.244.0.1&lt;/span&gt;&lt;/div&gt;" style="whiteSpace=wrap;html=1;rounded=1;arcSize=5;fontFamily=Montserrat;fontSource=https%3A%2F%2Ffonts.googleapis.com%2Fcss%3Ffamily%3DMontserrat;fontSize=22;verticalAlign=top;" parent="T1iK7mB77M15bipoznIS-1" vertex="1">
          <mxGeometry x="870" y="80" width="220" height="121" as="geometry" />
        </mxCell>
        <mxCell id="merpCIcpzivhtwV0OcQN-6" value="&lt;font style=&quot;font-size: 17px&quot; color=&quot;#AEC0E0&quot;&gt;eth0:&lt;/font&gt; &lt;font face=&quot;Montserrat&quot;&gt;10.244.2.6&lt;/font&gt;&lt;font style=&quot;font-size: 17px&quot; face=&quot;Montserrat&quot;&gt;/24&lt;/font&gt;" style="rounded=1;whiteSpace=wrap;html=1;fontFamily=PT Sans Narrow;fontSize=17;strokeColor=none;fontSource=https%3A%2F%2Ffonts.googleapis.com%2Fcss%3Ffamily%3DPT%2BSans%2BNarrow;fontColor=#FFFFFF;fillColor=#496495;" parent="T1iK7mB77M15bipoznIS-1" vertex="1">
          <mxGeometry x="502.62" y="150" width="174.75" height="40" as="geometry" />
        </mxCell>
        <mxCell id="merpCIcpzivhtwV0OcQN-7" value="&lt;font style=&quot;font-size: 17px&quot; color=&quot;#AEC0E0&quot;&gt;eth0:&lt;/font&gt; &lt;font face=&quot;Montserrat&quot;&gt;10.244.0.2&lt;/font&gt;&lt;font style=&quot;font-size: 17px&quot; face=&quot;Montserrat&quot;&gt;/24&lt;/font&gt;" style="rounded=1;whiteSpace=wrap;html=1;fontFamily=PT Sans Narrow;fontSize=17;strokeColor=none;fontSource=https%3A%2F%2Ffonts.googleapis.com%2Fcss%3Ffamily%3DPT%2BSans%2BNarrow;fontColor=#FFFFFF;fillColor=#496495;" parent="T1iK7mB77M15bipoznIS-1" vertex="1">
          <mxGeometry x="892.62" y="150" width="174.75" height="40" as="geometry" />
        </mxCell>
        <mxCell id="T1iK7mB77M15bipoznIS-19" value="" style="endArrow=oval;html=1;fontFamily=Montserrat;fontSize=22;entryX=0.5;entryY=1;entryDx=0;entryDy=0;strokeWidth=2;endFill=1;startFill=1;startArrow=oval;strokeColor=#292E38;" parent="T1iK7mB77M15bipoznIS-1" source="T1iK7mB77M15bipoznIS-13" target="merpCIcpzivhtwV0OcQN-6" edge="1">
          <mxGeometry width="50" height="50" relative="1" as="geometry">
            <mxPoint x="220.00499999999988" y="310" as="sourcePoint" />
            <mxPoint x="590" y="201" as="targetPoint" />
          </mxGeometry>
        </mxCell>
        <mxCell id="T1iK7mB77M15bipoznIS-20" value="" style="endArrow=oval;html=1;fontFamily=Montserrat;fontSize=22;entryX=0.5;entryY=1;entryDx=0;entryDy=0;exitX=0.5;exitY=0;exitDx=0;exitDy=0;strokeWidth=2;endFill=1;startFill=1;startArrow=oval;strokeColor=#292E38;" parent="T1iK7mB77M15bipoznIS-1" source="T1iK7mB77M15bipoznIS-14" target="merpCIcpzivhtwV0OcQN-7" edge="1">
          <mxGeometry width="50" height="50" relative="1" as="geometry">
            <mxPoint x="230.00499999999988" y="320" as="sourcePoint" />
            <mxPoint x="980.0100000000002" y="201" as="targetPoint" />
          </mxGeometry>
        </mxCell>
        <mxCell id="merpCIcpzivhtwV0OcQN-10" value="" style="group" parent="T1iK7mB77M15bipoznIS-1" vertex="1" connectable="0">
          <mxGeometry x="60" y="373" width="60" height="40" as="geometry" />
        </mxCell>
        <mxCell id="merpCIcpzivhtwV0OcQN-11" value="&lt;font color=&quot;#C65835&quot;&gt;&lt;b&gt;&lt;span&gt;L2&lt;/span&gt;&lt;/b&gt;&lt;/font&gt;" style="rounded=0;whiteSpace=wrap;html=1;labelBackgroundColor=none;fillColor=none;gradientColor=none;fontFamily=PT Sans Narrow;fontSize=16;strokeColor=none;fontColor=#666361;" parent="merpCIcpzivhtwV0OcQN-10" vertex="1">
          <mxGeometry width="60" height="40" as="geometry" />
        </mxCell>
        <mxCell id="merpCIcpzivhtwV0OcQN-12" value="" style="endArrow=classic;html=1;strokeColor=#666361;strokeWidth=2;fontFamily=PT Sans Narrow;fontSize=16;exitX=0;exitY=0.5;exitDx=0;exitDy=0;entryX=1;entryY=0.25;entryDx=0;entryDy=0;" parent="merpCIcpzivhtwV0OcQN-10" source="merpCIcpzivhtwV0OcQN-11" target="merpCIcpzivhtwV0OcQN-11" edge="1">
          <mxGeometry width="50" height="50" relative="1" as="geometry">
            <mxPoint x="60" y="-40" as="sourcePoint" />
            <mxPoint x="110" y="-90" as="targetPoint" />
            <Array as="points">
              <mxPoint x="10" y="10" />
            </Array>
          </mxGeometry>
        </mxCell>
        <mxCell id="merpCIcpzivhtwV0OcQN-13" value="" style="endArrow=classic;html=1;strokeColor=#666361;strokeWidth=2;fontFamily=PT Sans Narrow;fontSize=16;exitX=1;exitY=0.5;exitDx=0;exitDy=0;entryX=-0.008;entryY=0.794;entryDx=0;entryDy=0;entryPerimeter=0;" parent="merpCIcpzivhtwV0OcQN-10" source="merpCIcpzivhtwV0OcQN-11" target="merpCIcpzivhtwV0OcQN-11" edge="1">
          <mxGeometry width="50" height="50" relative="1" as="geometry">
            <mxPoint x="130" y="5" as="sourcePoint" />
            <mxPoint x="10" y="20" as="targetPoint" />
            <Array as="points">
              <mxPoint x="50" y="32" />
            </Array>
          </mxGeometry>
        </mxCell>
        <mxCell id="UUjVzUyJ3k6YeqgNMPgM-0" value="&lt;div style=&quot;font-size: 16px&quot;&gt;&lt;b&gt;10.244.0.0&lt;/b&gt;&lt;font style=&quot;font-size: 16px&quot;&gt;&lt;span style=&quot;left: 208.599px ; top: 216.875px&quot;&gt; &lt;font face=&quot;pt sans narrow&quot;&gt;→ &lt;/font&gt;&lt;/span&gt;&lt;font face=&quot;pt sans narrow&quot;&gt;&lt;span class=&quot;char&quot;&gt;&lt;span class=&quot;vchar&quot; id=&quot;char-node&quot;&gt;&lt;/span&gt;&lt;/span&gt;MAC-X&amp;nbsp;&lt;/font&gt;&lt;span style=&quot;font-family: &amp;#34;pt sans narrow&amp;#34;&quot;&gt;→&lt;/span&gt;&lt;font face=&quot;pt sans narrow&quot;&gt;&amp;nbsp;172.18.0.3&lt;/font&gt;&lt;/font&gt;&lt;/div&gt;&lt;b&gt;10.244.1.0&lt;/b&gt;&lt;span style=&quot;left: 208.599px ; top: 216.875px&quot;&gt;&amp;nbsp;&lt;font face=&quot;pt sans narrow&quot;&gt;→&amp;nbsp;&lt;/font&gt;&lt;/span&gt;&lt;font face=&quot;pt sans narrow&quot;&gt;&lt;span class=&quot;char&quot;&gt;&lt;span class=&quot;vchar&quot; id=&quot;char-node&quot;&gt;&lt;/span&gt;&lt;/span&gt;MAC-Z&amp;nbsp;&lt;/font&gt;&lt;span style=&quot;font-family: &amp;#34;pt sans narrow&amp;#34;&quot;&gt;→&lt;/span&gt;&lt;font face=&quot;pt sans narrow&quot;&gt;&amp;nbsp;172.18.0.4&lt;br&gt;&lt;/font&gt;" style="text;whiteSpace=wrap;html=1;fontSize=16;fontFamily=Montserrat;" parent="T1iK7mB77M15bipoznIS-1" vertex="1">
          <mxGeometry x="464" y="421" width="260" height="50" as="geometry" />
        </mxCell>
        <mxCell id="UUjVzUyJ3k6YeqgNMPgM-1" value="" style="endArrow=classic;html=1;strokeWidth=2;fontFamily=Montserrat;fontSize=18;strokeColor=#C65835;" parent="T1iK7mB77M15bipoznIS-1" edge="1">
          <mxGeometry width="50" height="50" relative="1" as="geometry">
            <mxPoint x="723.76" y="415" as="sourcePoint" />
            <mxPoint x="723.76" y="495" as="targetPoint" />
            <Array as="points">
              <mxPoint x="723.76" y="451" />
            </Array>
          </mxGeometry>
        </mxCell>
        <mxCell id="UUjVzUyJ3k6YeqgNMPgM-2" value="" style="group" parent="T1iK7mB77M15bipoznIS-1" vertex="1" connectable="0">
          <mxGeometry x="444" y="311" width="60" height="40" as="geometry" />
        </mxCell>
        <mxCell id="UUjVzUyJ3k6YeqgNMPgM-3" value="&lt;font color=&quot;#C65835&quot;&gt;&lt;b&gt;&lt;span&gt;L3&lt;/span&gt;&lt;/b&gt;&lt;/font&gt;" style="rounded=0;whiteSpace=wrap;html=1;labelBackgroundColor=none;fillColor=none;gradientColor=none;fontFamily=PT Sans Narrow;fontSize=16;strokeColor=none;fontColor=#666361;" parent="UUjVzUyJ3k6YeqgNMPgM-2" vertex="1">
          <mxGeometry width="60" height="40" as="geometry" />
        </mxCell>
        <mxCell id="UUjVzUyJ3k6YeqgNMPgM-4" value="" style="endArrow=classic;html=1;strokeColor=#666361;strokeWidth=2;fontFamily=PT Sans Narrow;fontSize=16;exitX=0;exitY=0.5;exitDx=0;exitDy=0;entryX=1;entryY=0.25;entryDx=0;entryDy=0;" parent="UUjVzUyJ3k6YeqgNMPgM-2" source="UUjVzUyJ3k6YeqgNMPgM-3" target="UUjVzUyJ3k6YeqgNMPgM-3" edge="1">
          <mxGeometry width="50" height="50" relative="1" as="geometry">
            <mxPoint x="60" y="-40" as="sourcePoint" />
            <mxPoint x="110" y="-90" as="targetPoint" />
            <Array as="points">
              <mxPoint x="10" y="10" />
            </Array>
          </mxGeometry>
        </mxCell>
        <mxCell id="UUjVzUyJ3k6YeqgNMPgM-5" value="" style="endArrow=classic;html=1;strokeColor=#666361;strokeWidth=2;fontFamily=PT Sans Narrow;fontSize=16;exitX=1;exitY=0.5;exitDx=0;exitDy=0;entryX=-0.008;entryY=0.794;entryDx=0;entryDy=0;entryPerimeter=0;" parent="UUjVzUyJ3k6YeqgNMPgM-2" source="UUjVzUyJ3k6YeqgNMPgM-3" target="UUjVzUyJ3k6YeqgNMPgM-3" edge="1">
          <mxGeometry width="50" height="50" relative="1" as="geometry">
            <mxPoint x="130" y="5" as="sourcePoint" />
            <mxPoint x="10" y="20" as="targetPoint" />
            <Array as="points">
              <mxPoint x="50" y="32" />
            </Array>
          </mxGeometry>
        </mxCell>
        <mxCell id="UUjVzUyJ3k6YeqgNMPgM-6" value="&lt;font style=&quot;font-size: 17px&quot; color=&quot;#AEC0E0&quot;&gt;flannel.1:&lt;/font&gt; &lt;font face=&quot;Montserrat&quot;&gt;10.244.2.0&lt;/font&gt;&lt;font style=&quot;font-size: 17px&quot; face=&quot;Montserrat&quot;&gt;/32&lt;/font&gt;" style="rounded=1;whiteSpace=wrap;html=1;fontFamily=PT Sans Narrow;fontSize=17;strokeColor=none;fontSource=https%3A%2F%2Ffonts.googleapis.com%2Fcss%3Ffamily%3DPT%2BSans%2BNarrow;fontColor=#FFFFFF;fillColor=#8F3C77;" parent="T1iK7mB77M15bipoznIS-1" vertex="1">
          <mxGeometry x="506.63" y="371" width="174.75" height="40" as="geometry" />
        </mxCell>
        <mxCell id="UUjVzUyJ3k6YeqgNMPgM-7" value="&lt;div style=&quot;font-size: 16px&quot;&gt;&lt;b&gt;default&lt;/b&gt;&lt;span style=&quot;left: 208.599px ; top: 216.875px ; font-size: 15px ; font-family: sans-serif&quot;&gt; → &lt;/span&gt;&lt;span&gt;&lt;span class=&quot;char&quot;&gt;&lt;span class=&quot;vchar&quot; id=&quot;char-node&quot; style=&quot;font-family: &amp;#34;u1f800&amp;#34;&quot;&gt;&lt;/span&gt;&lt;/span&gt;&lt;/span&gt;&lt;font face=&quot;PT Sans Narrow&quot;&gt;172.18.0.1&lt;/font&gt;&lt;/div&gt;&lt;div style=&quot;font-size: 16px&quot;&gt;&lt;b&gt;10.244.1.0/24&lt;/b&gt;&lt;span style=&quot;left: 208.599px ; top: 216.875px ; font-size: 15px ; font-family: sans-serif&quot;&gt;&amp;nbsp;→&amp;nbsp;&lt;/span&gt;&lt;span class=&quot;char&quot;&gt;&lt;span class=&quot;vchar&quot; id=&quot;char-node&quot; style=&quot;font-family: &amp;#34;u1f800&amp;#34;&quot;&gt;&lt;/span&gt;&lt;/span&gt;&lt;font face=&quot;PT Sans Narrow&quot;&gt;10.244.1.0&lt;/font&gt;&lt;font face=&quot;PT Sans Narrow&quot;&gt;&lt;br&gt;&lt;/font&gt;&lt;/div&gt;&lt;div style=&quot;font-size: 16px&quot;&gt;&lt;/div&gt;&lt;b&gt;10.244.0.0/24&lt;/b&gt;&lt;span style=&quot;left: 208.599px ; top: 216.875px ; font-size: 15px ; font-family: sans-serif&quot;&gt;&amp;nbsp;→&amp;nbsp;&lt;/span&gt;&lt;span class=&quot;char&quot;&gt;&lt;span class=&quot;vchar&quot; id=&quot;char-node&quot; style=&quot;font-family: &amp;#34;u1f800&amp;#34;&quot;&gt;&lt;/span&gt;&lt;/span&gt;&lt;font face=&quot;PT Sans Narrow&quot;&gt;10.244.0.0&lt;/font&gt;&lt;span style=&quot;font-family: &amp;#34;pt sans narrow&amp;#34;&quot;&gt;&lt;br&gt;&lt;/span&gt;" style="text;html=1;fontSize=16;fontFamily=Montserrat;" parent="T1iK7mB77M15bipoznIS-1" vertex="1">
          <mxGeometry x="514" y="291" width="190" height="66" as="geometry" />
        </mxCell>
        <mxCell id="UUjVzUyJ3k6YeqgNMPgM-8" value="" style="endArrow=classic;html=1;strokeWidth=2;fontFamily=Montserrat;fontSize=18;strokeColor=#C65835;" parent="T1iK7mB77M15bipoznIS-1" edge="1">
          <mxGeometry width="50" height="50" relative="1" as="geometry">
            <mxPoint x="724" y="295" as="sourcePoint" />
            <mxPoint x="724" y="375" as="targetPoint" />
          </mxGeometry>
        </mxCell>
        <mxCell id="UUjVzUyJ3k6YeqgNMPgM-9" value="" style="group" parent="T1iK7mB77M15bipoznIS-1" vertex="1" connectable="0">
          <mxGeometry x="444" y="374" width="60" height="40" as="geometry" />
        </mxCell>
        <mxCell id="UUjVzUyJ3k6YeqgNMPgM-10" value="&lt;font color=&quot;#C65835&quot;&gt;&lt;b&gt;&lt;span&gt;L2&lt;/span&gt;&lt;/b&gt;&lt;/font&gt;" style="rounded=0;whiteSpace=wrap;html=1;labelBackgroundColor=none;fillColor=none;gradientColor=none;fontFamily=PT Sans Narrow;fontSize=16;strokeColor=none;fontColor=#666361;" parent="UUjVzUyJ3k6YeqgNMPgM-9" vertex="1">
          <mxGeometry width="60" height="40" as="geometry" />
        </mxCell>
        <mxCell id="UUjVzUyJ3k6YeqgNMPgM-11" value="" style="endArrow=classic;html=1;strokeColor=#666361;strokeWidth=2;fontFamily=PT Sans Narrow;fontSize=16;exitX=0;exitY=0.5;exitDx=0;exitDy=0;entryX=1;entryY=0.25;entryDx=0;entryDy=0;" parent="UUjVzUyJ3k6YeqgNMPgM-9" source="UUjVzUyJ3k6YeqgNMPgM-10" target="UUjVzUyJ3k6YeqgNMPgM-10" edge="1">
          <mxGeometry width="50" height="50" relative="1" as="geometry">
            <mxPoint x="60" y="-40" as="sourcePoint" />
            <mxPoint x="110" y="-90" as="targetPoint" />
            <Array as="points">
              <mxPoint x="10" y="10" />
            </Array>
          </mxGeometry>
        </mxCell>
        <mxCell id="UUjVzUyJ3k6YeqgNMPgM-12" value="" style="endArrow=classic;html=1;strokeColor=#666361;strokeWidth=2;fontFamily=PT Sans Narrow;fontSize=16;exitX=1;exitY=0.5;exitDx=0;exitDy=0;entryX=-0.008;entryY=0.794;entryDx=0;entryDy=0;entryPerimeter=0;" parent="UUjVzUyJ3k6YeqgNMPgM-9" source="UUjVzUyJ3k6YeqgNMPgM-10" target="UUjVzUyJ3k6YeqgNMPgM-10" edge="1">
          <mxGeometry width="50" height="50" relative="1" as="geometry">
            <mxPoint x="130" y="5" as="sourcePoint" />
            <mxPoint x="10" y="20" as="targetPoint" />
            <Array as="points">
              <mxPoint x="50" y="32" />
            </Array>
          </mxGeometry>
        </mxCell>
        <mxCell id="UUjVzUyJ3k6YeqgNMPgM-13" value="&lt;div style=&quot;font-size: 16px&quot;&gt;&lt;b&gt;10.244.1.0&lt;/b&gt;&lt;font style=&quot;font-size: 16px&quot;&gt;&lt;span style=&quot;left: 208.599px ; top: 216.875px&quot;&gt; &lt;font face=&quot;pt sans narrow&quot;&gt;→ &lt;/font&gt;&lt;/span&gt;&lt;font face=&quot;pt sans narrow&quot;&gt;&lt;span class=&quot;char&quot;&gt;&lt;span class=&quot;vchar&quot; id=&quot;char-node&quot;&gt;&lt;/span&gt;&lt;/span&gt;MAC-Z&amp;nbsp;&lt;/font&gt;&lt;span style=&quot;font-family: &amp;#34;pt sans narrow&amp;#34;&quot;&gt;→&lt;/span&gt;&lt;font face=&quot;pt sans narrow&quot;&gt;&amp;nbsp;172.18.0.4&lt;/font&gt;&lt;/font&gt;&lt;/div&gt;&lt;b&gt;10.244.2.0&lt;/b&gt;&lt;span style=&quot;left: 208.599px ; top: 216.875px&quot;&gt;&amp;nbsp;&lt;font face=&quot;pt sans narrow&quot;&gt;→&amp;nbsp;&lt;/font&gt;&lt;/span&gt;&lt;font face=&quot;pt sans narrow&quot;&gt;&lt;span class=&quot;char&quot;&gt;&lt;span class=&quot;vchar&quot; id=&quot;char-node&quot;&gt;&lt;/span&gt;&lt;/span&gt;MAC-Y&amp;nbsp;&lt;/font&gt;&lt;span style=&quot;font-family: &amp;#34;pt sans narrow&amp;#34;&quot;&gt;→&lt;/span&gt;&lt;font face=&quot;pt sans narrow&quot;&gt;&amp;nbsp;172.18.0.2&lt;br&gt;&lt;/font&gt;" style="text;whiteSpace=wrap;html=1;fontSize=16;fontFamily=Montserrat;" parent="T1iK7mB77M15bipoznIS-1" vertex="1">
          <mxGeometry x="849.41" y="421" width="260" height="50" as="geometry" />
        </mxCell>
        <mxCell id="UUjVzUyJ3k6YeqgNMPgM-14" value="" style="endArrow=classic;html=1;strokeWidth=2;fontFamily=Montserrat;fontSize=18;strokeColor=#C65835;" parent="T1iK7mB77M15bipoznIS-1" edge="1">
          <mxGeometry width="50" height="50" relative="1" as="geometry">
            <mxPoint x="1109.17" y="415" as="sourcePoint" />
            <mxPoint x="1109.17" y="495" as="targetPoint" />
            <Array as="points">
              <mxPoint x="1109.17" y="451" />
            </Array>
          </mxGeometry>
        </mxCell>
        <mxCell id="UUjVzUyJ3k6YeqgNMPgM-15" value="" style="group" parent="T1iK7mB77M15bipoznIS-1" vertex="1" connectable="0">
          <mxGeometry x="829.41" y="311" width="60" height="40" as="geometry" />
        </mxCell>
        <mxCell id="UUjVzUyJ3k6YeqgNMPgM-16" value="&lt;font color=&quot;#C65835&quot;&gt;&lt;b&gt;&lt;span&gt;L3&lt;/span&gt;&lt;/b&gt;&lt;/font&gt;" style="rounded=0;whiteSpace=wrap;html=1;labelBackgroundColor=none;fillColor=none;gradientColor=none;fontFamily=PT Sans Narrow;fontSize=16;strokeColor=none;fontColor=#666361;" parent="UUjVzUyJ3k6YeqgNMPgM-15" vertex="1">
          <mxGeometry width="60" height="40" as="geometry" />
        </mxCell>
        <mxCell id="UUjVzUyJ3k6YeqgNMPgM-17" value="" style="endArrow=classic;html=1;strokeColor=#666361;strokeWidth=2;fontFamily=PT Sans Narrow;fontSize=16;exitX=0;exitY=0.5;exitDx=0;exitDy=0;entryX=1;entryY=0.25;entryDx=0;entryDy=0;" parent="UUjVzUyJ3k6YeqgNMPgM-15" source="UUjVzUyJ3k6YeqgNMPgM-16" target="UUjVzUyJ3k6YeqgNMPgM-16" edge="1">
          <mxGeometry width="50" height="50" relative="1" as="geometry">
            <mxPoint x="60" y="-40" as="sourcePoint" />
            <mxPoint x="110" y="-90" as="targetPoint" />
            <Array as="points">
              <mxPoint x="10" y="10" />
            </Array>
          </mxGeometry>
        </mxCell>
        <mxCell id="UUjVzUyJ3k6YeqgNMPgM-18" value="" style="endArrow=classic;html=1;strokeColor=#666361;strokeWidth=2;fontFamily=PT Sans Narrow;fontSize=16;exitX=1;exitY=0.5;exitDx=0;exitDy=0;entryX=-0.008;entryY=0.794;entryDx=0;entryDy=0;entryPerimeter=0;" parent="UUjVzUyJ3k6YeqgNMPgM-15" source="UUjVzUyJ3k6YeqgNMPgM-16" target="UUjVzUyJ3k6YeqgNMPgM-16" edge="1">
          <mxGeometry width="50" height="50" relative="1" as="geometry">
            <mxPoint x="130" y="5" as="sourcePoint" />
            <mxPoint x="10" y="20" as="targetPoint" />
            <Array as="points">
              <mxPoint x="50" y="32" />
            </Array>
          </mxGeometry>
        </mxCell>
        <mxCell id="UUjVzUyJ3k6YeqgNMPgM-19" value="&lt;font style=&quot;font-size: 17px&quot; color=&quot;#AEC0E0&quot;&gt;flannel.1:&lt;/font&gt; &lt;font face=&quot;Montserrat&quot;&gt;10.244.0.0&lt;/font&gt;&lt;font style=&quot;font-size: 17px&quot; face=&quot;Montserrat&quot;&gt;/32&lt;/font&gt;" style="rounded=1;whiteSpace=wrap;html=1;fontFamily=PT Sans Narrow;fontSize=17;strokeColor=none;fontSource=https%3A%2F%2Ffonts.googleapis.com%2Fcss%3Ffamily%3DPT%2BSans%2BNarrow;fontColor=#FFFFFF;fillColor=#8F3C77;" parent="T1iK7mB77M15bipoznIS-1" vertex="1">
          <mxGeometry x="892.04" y="371" width="174.75" height="40" as="geometry" />
        </mxCell>
        <mxCell id="UUjVzUyJ3k6YeqgNMPgM-20" value="&lt;div style=&quot;font-size: 16px&quot;&gt;&lt;b&gt;default&lt;/b&gt;&lt;span style=&quot;left: 208.599px ; top: 216.875px ; font-size: 15px ; font-family: sans-serif&quot;&gt; → &lt;/span&gt;&lt;span&gt;&lt;span class=&quot;char&quot;&gt;&lt;span class=&quot;vchar&quot; id=&quot;char-node&quot; style=&quot;font-family: &amp;#34;u1f800&amp;#34;&quot;&gt;&lt;/span&gt;&lt;/span&gt;&lt;/span&gt;&lt;font face=&quot;PT Sans Narrow&quot;&gt;172.18.0.1&lt;/font&gt;&lt;/div&gt;&lt;div style=&quot;font-size: 16px&quot;&gt;&lt;b&gt;10.244.2.0/24&lt;/b&gt;&lt;span style=&quot;left: 208.599px ; top: 216.875px ; font-size: 15px ; font-family: sans-serif&quot;&gt;&amp;nbsp;→&amp;nbsp;&lt;/span&gt;&lt;span class=&quot;char&quot;&gt;&lt;span class=&quot;vchar&quot; id=&quot;char-node&quot; style=&quot;font-family: &amp;#34;u1f800&amp;#34;&quot;&gt;&lt;/span&gt;&lt;/span&gt;&lt;font face=&quot;PT Sans Narrow&quot;&gt;10.244.2.0&lt;/font&gt;&lt;font face=&quot;PT Sans Narrow&quot;&gt;&lt;br&gt;&lt;/font&gt;&lt;/div&gt;&lt;div style=&quot;font-size: 16px&quot;&gt;&lt;/div&gt;&lt;b&gt;10.244.1.0/24&lt;/b&gt;&lt;span style=&quot;left: 208.599px ; top: 216.875px ; font-size: 15px ; font-family: sans-serif&quot;&gt;&amp;nbsp;→&amp;nbsp;&lt;/span&gt;&lt;span class=&quot;char&quot;&gt;&lt;span class=&quot;vchar&quot; id=&quot;char-node&quot; style=&quot;font-family: &amp;#34;u1f800&amp;#34;&quot;&gt;&lt;/span&gt;&lt;/span&gt;&lt;font face=&quot;PT Sans Narrow&quot;&gt;10.244.1.0&lt;/font&gt;&lt;span style=&quot;font-family: &amp;#34;pt sans narrow&amp;#34;&quot;&gt;&lt;br&gt;&lt;/span&gt;" style="text;html=1;fontSize=16;fontFamily=Montserrat;" parent="T1iK7mB77M15bipoznIS-1" vertex="1">
          <mxGeometry x="899.41" y="291" width="190" height="66" as="geometry" />
        </mxCell>
        <mxCell id="UUjVzUyJ3k6YeqgNMPgM-21" value="" style="endArrow=classic;html=1;strokeWidth=2;fontFamily=Montserrat;fontSize=18;strokeColor=#C65835;" parent="T1iK7mB77M15bipoznIS-1" edge="1">
          <mxGeometry width="50" height="50" relative="1" as="geometry">
            <mxPoint x="1109.4099999999999" y="295" as="sourcePoint" />
            <mxPoint x="1109.4099999999999" y="375" as="targetPoint" />
          </mxGeometry>
        </mxCell>
        <mxCell id="UUjVzUyJ3k6YeqgNMPgM-22" value="" style="group" parent="T1iK7mB77M15bipoznIS-1" vertex="1" connectable="0">
          <mxGeometry x="829.41" y="374" width="60" height="40" as="geometry" />
        </mxCell>
        <mxCell id="UUjVzUyJ3k6YeqgNMPgM-23" value="&lt;font color=&quot;#C65835&quot;&gt;&lt;b&gt;&lt;span&gt;L2&lt;/span&gt;&lt;/b&gt;&lt;/font&gt;" style="rounded=0;whiteSpace=wrap;html=1;labelBackgroundColor=none;fillColor=none;gradientColor=none;fontFamily=PT Sans Narrow;fontSize=16;strokeColor=none;fontColor=#666361;" parent="UUjVzUyJ3k6YeqgNMPgM-22" vertex="1">
          <mxGeometry width="60" height="40" as="geometry" />
        </mxCell>
        <mxCell id="UUjVzUyJ3k6YeqgNMPgM-24" value="" style="endArrow=classic;html=1;strokeColor=#666361;strokeWidth=2;fontFamily=PT Sans Narrow;fontSize=16;exitX=0;exitY=0.5;exitDx=0;exitDy=0;entryX=1;entryY=0.25;entryDx=0;entryDy=0;" parent="UUjVzUyJ3k6YeqgNMPgM-22" source="UUjVzUyJ3k6YeqgNMPgM-23" target="UUjVzUyJ3k6YeqgNMPgM-23" edge="1">
          <mxGeometry width="50" height="50" relative="1" as="geometry">
            <mxPoint x="60" y="-40" as="sourcePoint" />
            <mxPoint x="110" y="-90" as="targetPoint" />
            <Array as="points">
              <mxPoint x="10" y="10" />
            </Array>
          </mxGeometry>
        </mxCell>
        <mxCell id="UUjVzUyJ3k6YeqgNMPgM-25" value="" style="endArrow=classic;html=1;strokeColor=#666361;strokeWidth=2;fontFamily=PT Sans Narrow;fontSize=16;exitX=1;exitY=0.5;exitDx=0;exitDy=0;entryX=-0.008;entryY=0.794;entryDx=0;entryDy=0;entryPerimeter=0;" parent="UUjVzUyJ3k6YeqgNMPgM-22" source="UUjVzUyJ3k6YeqgNMPgM-23" target="UUjVzUyJ3k6YeqgNMPgM-23" edge="1">
          <mxGeometry width="50" height="50" relative="1" as="geometry">
            <mxPoint x="130" y="5" as="sourcePoint" />
            <mxPoint x="10" y="20" as="targetPoint" />
            <Array as="points">
              <mxPoint x="50" y="32" />
            </Array>
          </mxGeometry>
        </mxCell>
      </root>
    </mxGraphModel>
  </diagram>
  <diagram id="q_y3Atesxo8uv_4-H0Cn" name="logo">
    <mxGraphModel dx="1422" dy="729" grid="1" gridSize="10" guides="1" tooltips="1" connect="1" arrows="1" fold="1" page="1" pageScale="1" pageWidth="1169" pageHeight="827" math="0" shadow="0">
      <root>
        <mxCell id="aF0mQ-afM0jrV9hmaIbj-0" />
        <mxCell id="aF0mQ-afM0jrV9hmaIbj-1" parent="aF0mQ-afM0jrV9hmaIbj-0" />
        <mxCell id="3oKiMLNllF7-drYSaOPQ-0" value="" style="rounded=0;whiteSpace=wrap;html=1;fontColor=#FFFFFF;align=right;strokeColor=none;fillColor=#8451a1;" parent="aF0mQ-afM0jrV9hmaIbj-1" vertex="1">
          <mxGeometry x="530" y="594.5" width="275" height="120" as="geometry" />
        </mxCell>
        <mxCell id="aF0mQ-afM0jrV9hmaIbj-3" value="&amp;nbsp;&amp;nbsp;&amp;nbsp;&amp;nbsp;&amp;nbsp;&amp;nbsp;&amp;nbsp;&amp;nbsp;&amp;nbsp;&amp;nbsp; " style="rounded=0;whiteSpace=wrap;html=1;labelBackgroundColor=none;fillColor=none;gradientColor=none;fontFamily=PT Sans Narrow;fontSize=16;strokeColor=none;fontColor=#666361;" parent="aF0mQ-afM0jrV9hmaIbj-1" vertex="1">
          <mxGeometry x="563" y="620" width="120" height="69" as="geometry" />
        </mxCell>
        <mxCell id="aF0mQ-afM0jrV9hmaIbj-4" value="" style="endArrow=classic;html=1;strokeWidth=2;fontFamily=PT Sans Narrow;fontSize=16;exitX=0;exitY=0.5;exitDx=0;exitDy=0;entryX=1;entryY=0.25;entryDx=0;entryDy=0;fontColor=#FFFFFF;strokeColor=#00BDF3;" parent="aF0mQ-afM0jrV9hmaIbj-1" source="aF0mQ-afM0jrV9hmaIbj-3" target="aF0mQ-afM0jrV9hmaIbj-3" edge="1">
          <mxGeometry width="50" height="50" relative="1" as="geometry">
            <mxPoint x="620" y="609" as="sourcePoint" />
            <mxPoint x="670" y="559" as="targetPoint" />
            <Array as="points">
              <mxPoint x="580" y="637" />
            </Array>
          </mxGeometry>
        </mxCell>
        <mxCell id="aF0mQ-afM0jrV9hmaIbj-5" value="" style="endArrow=classic;html=1;strokeWidth=2;fontFamily=PT Sans Narrow;fontSize=16;exitX=1;exitY=0.5;exitDx=0;exitDy=0;entryX=-0.008;entryY=0.794;entryDx=0;entryDy=0;entryPerimeter=0;fontColor=#FFFFFF;strokeColor=#C65835;" parent="aF0mQ-afM0jrV9hmaIbj-1" source="aF0mQ-afM0jrV9hmaIbj-3" target="aF0mQ-afM0jrV9hmaIbj-3" edge="1">
          <mxGeometry width="50" height="50" relative="1" as="geometry">
            <mxPoint x="690" y="654" as="sourcePoint" />
            <mxPoint x="570" y="669" as="targetPoint" />
            <Array as="points">
              <mxPoint x="660" y="675" />
            </Array>
          </mxGeometry>
        </mxCell>
        <mxCell id="3oKiMLNllF7-drYSaOPQ-1" value="" style="endArrow=oval;html=1;strokeWidth=1;fontFamily=PT Sans Narrow;fontSize=16;entryX=0;entryY=0.5;entryDx=0;entryDy=0;fontColor=#FFFFFF;endFill=1;exitX=1;exitY=0.5;exitDx=0;exitDy=0;startArrow=oval;startFill=1;strokeColor=#FFFFFF;" parent="aF0mQ-afM0jrV9hmaIbj-1" source="aF0mQ-afM0jrV9hmaIbj-3" target="aF0mQ-afM0jrV9hmaIbj-3" edge="1">
          <mxGeometry width="50" height="50" relative="1" as="geometry">
            <mxPoint x="680" y="660" as="sourcePoint" />
            <mxPoint x="572.04" y="684.7859999999998" as="targetPoint" />
            <Array as="points">
              <mxPoint x="650" y="660" />
              <mxPoint x="600" y="650" />
            </Array>
          </mxGeometry>
        </mxCell>
        <mxCell id="aF0mQ-afM0jrV9hmaIbj-7" value="" style="aspect=fixed;html=1;points=[];align=center;image;fontSize=12;image=img/lib/mscae/Kubernetes.svg;" parent="aF0mQ-afM0jrV9hmaIbj-1" vertex="1">
          <mxGeometry x="606.81" y="639" width="35.29" height="33.87" as="geometry" />
        </mxCell>
        <mxCell id="74BWSBfTKZin5kM2YjES-0" value="GUIDE" style="text;whiteSpace=wrap;html=1;fontSize=22;fontFamily=Montserrat;fontColor=#FFFFFF;" parent="aF0mQ-afM0jrV9hmaIbj-1" vertex="1">
          <mxGeometry x="700" y="634.5" width="80" height="40" as="geometry" />
        </mxCell>
      </root>
    </mxGraphModel>
  </diagram>
  <diagram id="CaLnPiniH_7q3JOQYB9A" name="templates">
    <mxGraphModel dx="1422" dy="729" grid="1" gridSize="10" guides="1" tooltips="1" connect="1" arrows="1" fold="1" page="1" pageScale="1" pageWidth="827" pageHeight="1169" math="0" shadow="0">
      <root>
        <mxCell id="9_FCnLAXndZyDKLmjUKi-0" />
        <mxCell id="9_FCnLAXndZyDKLmjUKi-1" parent="9_FCnLAXndZyDKLmjUKi-0" />
        <mxCell id="up2XAxVWtve2WkGburIk-0" value="Node: worker" style="whiteSpace=wrap;html=1;rounded=1;arcSize=5;fontFamily=Montserrat;fontSource=https%3A%2F%2Ffonts.googleapis.com%2Fcss%3Ffamily%3DMontserrat;fontSize=22;verticalAlign=top;" parent="9_FCnLAXndZyDKLmjUKi-1" vertex="1">
          <mxGeometry x="40" y="40" width="340" height="411" as="geometry" />
        </mxCell>
        <mxCell id="up2XAxVWtve2WkGburIk-1" value="&lt;div style=&quot;font-size: 20px;&quot;&gt;&lt;font data-font-src=&quot;https://fonts.googleapis.com/css?family=Montserrat&quot; style=&quot;font-size: 20px;&quot; face=&quot;Montserrat&quot;&gt;Text 1: Host Networking&lt;br style=&quot;font-size: 20px;&quot;&gt;&lt;/font&gt;&lt;/div&gt;&lt;div style=&quot;font-size: 20px;&quot;&gt;&lt;font data-font-src=&quot;https://fonts.googleapis.com/css?family=Montserrat&quot; style=&quot;font-size: 20px;&quot; face=&quot;Montserrat&quot; color=&quot;#7288ad&quot;&gt;Text 2: Host Networking&lt;/font&gt;&lt;/div&gt;&lt;div style=&quot;font-size: 20px;&quot;&gt;&lt;font data-font-src=&quot;https://fonts.googleapis.com/css?family=Montserrat&quot; style=&quot;font-size: 20px;&quot; face=&quot;Montserrat&quot; color=&quot;#666361&quot;&gt;&lt;font data-font-src=&quot;https://fonts.googleapis.com/css?family=Montserrat&quot; style=&quot;font-size: 20px;&quot; face=&quot;Montserrat&quot;&gt;Text 3: Host Networking&lt;/font&gt;&lt;/font&gt;&lt;/div&gt;" style="text;html=1;align=center;verticalAlign=middle;resizable=0;points=[];autosize=1;fontSize=20;" parent="9_FCnLAXndZyDKLmjUKi-1" vertex="1">
          <mxGeometry x="60" y="720" width="250" height="90" as="geometry" />
        </mxCell>
        <mxCell id="up2XAxVWtve2WkGburIk-2" value="&lt;font style=&quot;font-size: 12px&quot; color=&quot;#EEAB96&quot;&gt;FROM:&lt;/font&gt; &lt;font data-font-src=&quot;https://fonts.googleapis.com/css?family=Montserrat&quot; face=&quot;Montserrat&quot;&gt;2.2.2.2&lt;/font&gt;" style="rounded=1;whiteSpace=wrap;html=1;fontFamily=PT Sans Narrow;fontSize=16;strokeColor=none;fillColor=#c65835;fontSource=https%3A%2F%2Ffonts.googleapis.com%2Fcss%3Ffamily%3DPT%2BSans%2BNarrow;fontColor=#FFFFFF;" parent="9_FCnLAXndZyDKLmjUKi-1" vertex="1">
          <mxGeometry x="360" y="760" width="100" height="30" as="geometry" />
        </mxCell>
        <mxCell id="up2XAxVWtve2WkGburIk-3" value="&lt;div style=&quot;font-size: 16px;&quot;&gt;&lt;font style=&quot;font-size: 16px;&quot; color=&quot;#eeab96&quot;&gt;Text Color 1&lt;/font&gt;&lt;/div&gt;&lt;div style=&quot;font-size: 16px;&quot;&gt;&lt;font style=&quot;font-size: 16px;&quot; color=&quot;#FFFFFF&quot;&gt;Text Color 2&lt;/font&gt;&lt;br style=&quot;font-size: 16px;&quot;&gt;&lt;/div&gt;" style="rounded=0;whiteSpace=wrap;html=1;fillColor=#c65835;strokeColor=none;fontFamily=Montserrat;fontSource=https%3A%2F%2Ffonts.googleapis.com%2Fcss%3Ffamily%3DMontserrat;fontSize=16;" parent="9_FCnLAXndZyDKLmjUKi-1" vertex="1">
          <mxGeometry x="840" y="750" width="120" height="60" as="geometry" />
        </mxCell>
        <mxCell id="up2XAxVWtve2WkGburIk-4" value="&lt;div style=&quot;font-size: 16px&quot;&gt;&lt;font style=&quot;font-size: 16px&quot; color=&quot;#292e38&quot;&gt;Text Color 1&lt;/font&gt;&lt;/div&gt;&lt;div style=&quot;font-size: 16px&quot;&gt;&lt;font style=&quot;font-size: 16px&quot; color=&quot;#aec0e0&quot;&gt;Text Color 2&lt;/font&gt;&lt;br style=&quot;font-size: 16px&quot;&gt;&lt;/div&gt;" style="rounded=0;whiteSpace=wrap;html=1;strokeColor=none;fontFamily=Montserrat;fontSource=https%3A%2F%2Ffonts.googleapis.com%2Fcss%3Ffamily%3DMontserrat;fontSize=16;fillColor=#496495;" parent="9_FCnLAXndZyDKLmjUKi-1" vertex="1">
          <mxGeometry x="580" y="750" width="120" height="60" as="geometry" />
        </mxCell>
        <mxCell id="up2XAxVWtve2WkGburIk-5" value="&lt;div&gt;&lt;font data-font-src=&quot;https://fonts.googleapis.com/css?family=Montserrat&quot; face=&quot;Montserrat&quot;&gt;eth0&lt;/font&gt;&lt;/div&gt;&lt;div&gt;&lt;font data-font-src=&quot;https://fonts.googleapis.com/css?family=Montserrat&quot; face=&quot;Montserrat&quot;&gt;.11&lt;br&gt;&lt;/font&gt;&lt;/div&gt;" style="rounded=1;whiteSpace=wrap;html=1;fontSize=16;fontFamily=PT Sans Narrow;fontColor=#FFFFFF;strokeColor=none;fillColor=#c65835;" parent="9_FCnLAXndZyDKLmjUKi-1" vertex="1">
          <mxGeometry x="170" y="431" width="80" height="40" as="geometry" />
        </mxCell>
        <mxCell id="up2XAxVWtve2WkGburIk-6" value="Node: worker2" style="whiteSpace=wrap;html=1;rounded=1;arcSize=5;fontFamily=Montserrat;fontSource=https%3A%2F%2Ffonts.googleapis.com%2Fcss%3Ffamily%3DMontserrat;fontSize=22;verticalAlign=top;" parent="9_FCnLAXndZyDKLmjUKi-1" vertex="1">
          <mxGeometry x="420" y="40" width="340" height="411" as="geometry" />
        </mxCell>
        <mxCell id="up2XAxVWtve2WkGburIk-7" value="Node: control-plane" style="whiteSpace=wrap;html=1;rounded=1;arcSize=5;fontFamily=Montserrat;fontSource=https%3A%2F%2Ffonts.googleapis.com%2Fcss%3Ffamily%3DMontserrat;fontSize=22;verticalAlign=top;" parent="9_FCnLAXndZyDKLmjUKi-1" vertex="1">
          <mxGeometry x="800" y="40" width="340" height="411" as="geometry" />
        </mxCell>
        <mxCell id="up2XAxVWtve2WkGburIk-8" value="" style="group" parent="9_FCnLAXndZyDKLmjUKi-1" vertex="1" connectable="0">
          <mxGeometry x="560.5" y="520" width="80" height="80" as="geometry" />
        </mxCell>
        <mxCell id="up2XAxVWtve2WkGburIk-9" value="" style="group" parent="9_FCnLAXndZyDKLmjUKi-1" vertex="1" connectable="0">
          <mxGeometry x="460" y="640" width="80" height="80" as="geometry" />
        </mxCell>
        <mxCell id="up2XAxVWtve2WkGburIk-10" value="" style="group" parent="up2XAxVWtve2WkGburIk-9" vertex="1" connectable="0">
          <mxGeometry width="80" height="80" as="geometry" />
        </mxCell>
        <mxCell id="up2XAxVWtve2WkGburIk-11" value="" style="ellipse;whiteSpace=wrap;html=1;aspect=fixed;fontSize=16;" parent="up2XAxVWtve2WkGburIk-10" vertex="1">
          <mxGeometry width="80" height="80" as="geometry" />
        </mxCell>
        <mxCell id="up2XAxVWtve2WkGburIk-12" value="" style="html=1;shadow=0;dashed=0;align=center;verticalAlign=middle;shape=mxgraph.arrows2.quadArrow;dy=3.83;dx=13.94;notch=24;arrowHead=8.8;fontSize=16;" parent="up2XAxVWtve2WkGburIk-10" vertex="1">
          <mxGeometry x="0.5" y="0.5" width="79" height="79" as="geometry" />
        </mxCell>
        <mxCell id="up2XAxVWtve2WkGburIk-13" value="&lt;div&gt;&lt;font data-font-src=&quot;https://fonts.googleapis.com/css?family=Montserrat&quot; face=&quot;Montserrat&quot;&gt;eth0&lt;/font&gt;&lt;/div&gt;&lt;div&gt;&lt;font data-font-src=&quot;https://fonts.googleapis.com/css?family=Montserrat&quot; face=&quot;Montserrat&quot;&gt;.12&lt;br&gt;&lt;/font&gt;&lt;/div&gt;" style="rounded=1;whiteSpace=wrap;html=1;fontSize=16;fontFamily=PT Sans Narrow;fontColor=#FFFFFF;strokeColor=none;fillColor=#c65835;" parent="9_FCnLAXndZyDKLmjUKi-1" vertex="1">
          <mxGeometry x="560" y="431" width="80" height="40" as="geometry" />
        </mxCell>
        <mxCell id="up2XAxVWtve2WkGburIk-14" value="&lt;div&gt;&lt;font data-font-src=&quot;https://fonts.googleapis.com/css?family=Montserrat&quot; face=&quot;Montserrat&quot;&gt;eth0&lt;/font&gt;&lt;/div&gt;&lt;div&gt;&lt;font data-font-src=&quot;https://fonts.googleapis.com/css?family=Montserrat&quot; face=&quot;Montserrat&quot;&gt;.10&lt;/font&gt;&lt;/div&gt;" style="rounded=1;whiteSpace=wrap;html=1;fontSize=16;fontFamily=PT Sans Narrow;fontColor=#FFFFFF;strokeColor=none;fillColor=#c65835;" parent="9_FCnLAXndZyDKLmjUKi-1" vertex="1">
          <mxGeometry x="940" y="431" width="80" height="40" as="geometry" />
        </mxCell>
        <mxCell id="up2XAxVWtve2WkGburIk-15" value="" style="endArrow=none;dashed=1;html=1;fontFamily=Montserrat;fontSize=22;" parent="9_FCnLAXndZyDKLmjUKi-1" edge="1">
          <mxGeometry width="50" height="50" relative="1" as="geometry">
            <mxPoint x="80" y="500" as="sourcePoint" />
            <mxPoint x="1120" y="500" as="targetPoint" />
          </mxGeometry>
        </mxCell>
        <mxCell id="up2XAxVWtve2WkGburIk-16" value="&lt;div&gt;&lt;font data-font-src=&quot;https://fonts.googleapis.com/css?family=Montserrat&quot; style=&quot;font-size: 20px&quot; face=&quot;Montserrat&quot;&gt;Host OS &lt;br&gt;&lt;/font&gt;&lt;/div&gt;&lt;div&gt;&lt;font data-font-src=&quot;https://fonts.googleapis.com/css?family=Montserrat&quot; style=&quot;font-size: 20px&quot; face=&quot;Montserrat&quot;&gt;network namespace&lt;/font&gt;&lt;/div&gt;" style="text;whiteSpace=wrap;html=1;fontSize=22;fontFamily=Montserrat;" parent="9_FCnLAXndZyDKLmjUKi-1" vertex="1">
          <mxGeometry x="80" y="500" width="240" height="40" as="geometry" />
        </mxCell>
        <mxCell id="up2XAxVWtve2WkGburIk-17" value="&lt;font style=&quot;font-size: 12px&quot; color=&quot;#EEAB96&quot;&gt;FROM:&lt;/font&gt; &lt;font data-font-src=&quot;https://fonts.googleapis.com/css?family=Montserrat&quot; face=&quot;Montserrat&quot;&gt;2.2.2.2&lt;/font&gt;" style="rounded=1;whiteSpace=wrap;html=1;fontFamily=PT Sans Narrow;fontSize=16;strokeColor=none;fillColor=#c65835;fontSource=https%3A%2F%2Ffonts.googleapis.com%2Fcss%3Ffamily%3DPT%2BSans%2BNarrow;fontColor=#FFFFFF;" parent="9_FCnLAXndZyDKLmjUKi-1" vertex="1">
          <mxGeometry x="180" y="620" width="100" height="30" as="geometry" />
        </mxCell>
        <mxCell id="up2XAxVWtve2WkGburIk-18" value="&lt;font style=&quot;font-size: 17px&quot; color=&quot;#EEAB96&quot;&gt;kind:&lt;/font&gt; &lt;font style=&quot;font-size: 17px&quot; face=&quot;Montserrat&quot;&gt;172.18.0.1/16&lt;/font&gt;" style="rounded=1;whiteSpace=wrap;html=1;fontFamily=PT Sans Narrow;fontSize=17;strokeColor=none;fillColor=#c65835;fontSource=https%3A%2F%2Ffonts.googleapis.com%2Fcss%3Ffamily%3DPT%2BSans%2BNarrow;fontColor=#FFFFFF;" parent="9_FCnLAXndZyDKLmjUKi-1" vertex="1">
          <mxGeometry x="512.63" y="540" width="174.75" height="40" as="geometry" />
        </mxCell>
        <mxCell id="up2XAxVWtve2WkGburIk-19" value="&lt;font style=&quot;font-size: 17px&quot; color=&quot;#AEC0E0&quot;&gt;cbr:&lt;/font&gt; &lt;font face=&quot;Montserrat&quot;&gt;10.244.1.1&lt;/font&gt;&lt;font style=&quot;font-size: 17px&quot; face=&quot;Montserrat&quot;&gt;/16&lt;/font&gt;" style="rounded=1;whiteSpace=wrap;html=1;fontFamily=PT Sans Narrow;fontSize=17;strokeColor=none;fontSource=https%3A%2F%2Ffonts.googleapis.com%2Fcss%3Ffamily%3DPT%2BSans%2BNarrow;fontColor=#FFFFFF;fillColor=#496495;" parent="9_FCnLAXndZyDKLmjUKi-1" vertex="1">
          <mxGeometry x="122.63" y="300" width="174.75" height="40" as="geometry" />
        </mxCell>
        <mxCell id="up2XAxVWtve2WkGburIk-20" value="&lt;font style=&quot;font-size: 17px&quot; color=&quot;#AEC0E0&quot;&gt;cbr:&lt;/font&gt; &lt;font face=&quot;Montserrat&quot;&gt;10.244.2.1&lt;/font&gt;&lt;font style=&quot;font-size: 17px&quot; face=&quot;Montserrat&quot;&gt;/16&lt;/font&gt;" style="rounded=1;whiteSpace=wrap;html=1;fontFamily=PT Sans Narrow;fontSize=17;strokeColor=none;fontSource=https%3A%2F%2Ffonts.googleapis.com%2Fcss%3Ffamily%3DPT%2BSans%2BNarrow;fontColor=#FFFFFF;fillColor=#496495;" parent="9_FCnLAXndZyDKLmjUKi-1" vertex="1">
          <mxGeometry x="502.63" y="300" width="174.75" height="40" as="geometry" />
        </mxCell>
        <mxCell id="up2XAxVWtve2WkGburIk-21" value="&lt;font style=&quot;font-size: 17px&quot; color=&quot;#AEC0E0&quot;&gt;cbr:&lt;/font&gt; &lt;font face=&quot;Montserrat&quot;&gt;10.244.0.1&lt;/font&gt;&lt;font style=&quot;font-size: 17px&quot; face=&quot;Montserrat&quot;&gt;/16&lt;/font&gt;" style="rounded=1;whiteSpace=wrap;html=1;fontFamily=PT Sans Narrow;fontSize=17;strokeColor=none;fontSource=https%3A%2F%2Ffonts.googleapis.com%2Fcss%3Ffamily%3DPT%2BSans%2BNarrow;fontColor=#FFFFFF;fillColor=#496495;" parent="9_FCnLAXndZyDKLmjUKi-1" vertex="1">
          <mxGeometry x="892.62" y="300" width="174.75" height="40" as="geometry" />
        </mxCell>
        <mxCell id="up2XAxVWtve2WkGburIk-22" value="&lt;div&gt;Pod:&lt;/div&gt;&lt;div&gt;tshoot-1&lt;br&gt;&lt;/div&gt;" style="whiteSpace=wrap;html=1;rounded=1;arcSize=5;fontFamily=Montserrat;fontSource=https%3A%2F%2Ffonts.googleapis.com%2Fcss%3Ffamily%3DMontserrat;fontSize=22;verticalAlign=top;" parent="9_FCnLAXndZyDKLmjUKi-1" vertex="1">
          <mxGeometry x="150" y="90" width="120" height="111" as="geometry" />
        </mxCell>
        <mxCell id="up2XAxVWtve2WkGburIk-23" value="&lt;div&gt;Pod:&lt;/div&gt;&lt;div&gt;tshoot-2&lt;br&gt;&lt;/div&gt;" style="whiteSpace=wrap;html=1;rounded=1;arcSize=5;fontFamily=Montserrat;fontSource=https%3A%2F%2Ffonts.googleapis.com%2Fcss%3Ffamily%3DMontserrat;fontSize=22;verticalAlign=top;" parent="9_FCnLAXndZyDKLmjUKi-1" vertex="1">
          <mxGeometry x="530" y="90" width="120" height="111" as="geometry" />
        </mxCell>
        <mxCell id="up2XAxVWtve2WkGburIk-24" value="&lt;div&gt;Pod:&lt;/div&gt;&lt;div&gt;CoreDNS&lt;br&gt;&lt;/div&gt;" style="whiteSpace=wrap;html=1;rounded=1;arcSize=5;fontFamily=Montserrat;fontSource=https%3A%2F%2Ffonts.googleapis.com%2Fcss%3Ffamily%3DMontserrat;fontSize=22;verticalAlign=top;" parent="9_FCnLAXndZyDKLmjUKi-1" vertex="1">
          <mxGeometry x="920" y="90" width="120" height="111" as="geometry" />
        </mxCell>
        <mxCell id="up2XAxVWtve2WkGburIk-25" value="" style="endArrow=oval;html=1;fontFamily=Montserrat;fontSize=22;entryX=0.5;entryY=1;entryDx=0;entryDy=0;exitX=0.5;exitY=0;exitDx=0;exitDy=0;startArrow=oval;startFill=1;endFill=1;strokeWidth=2;strokeColor=#292E38;" parent="9_FCnLAXndZyDKLmjUKi-1" source="up2XAxVWtve2WkGburIk-19" target="up2XAxVWtve2WkGburIk-22" edge="1">
          <mxGeometry width="50" height="50" relative="1" as="geometry">
            <mxPoint x="610.0050000000001" y="550" as="sourcePoint" />
            <mxPoint x="610" y="480.9999999999998" as="targetPoint" />
          </mxGeometry>
        </mxCell>
        <mxCell id="up2XAxVWtve2WkGburIk-26" value="" style="endArrow=oval;html=1;fontFamily=Montserrat;fontSize=22;entryX=0.5;entryY=1;entryDx=0;entryDy=0;strokeWidth=2;endFill=1;startFill=1;startArrow=oval;strokeColor=#292E38;" parent="9_FCnLAXndZyDKLmjUKi-1" source="up2XAxVWtve2WkGburIk-20" target="up2XAxVWtve2WkGburIk-23" edge="1">
          <mxGeometry width="50" height="50" relative="1" as="geometry">
            <mxPoint x="220.00499999999988" y="310" as="sourcePoint" />
            <mxPoint x="220" y="211" as="targetPoint" />
          </mxGeometry>
        </mxCell>
        <mxCell id="up2XAxVWtve2WkGburIk-27" value="" style="endArrow=oval;html=1;fontFamily=Montserrat;fontSize=22;entryX=0.5;entryY=1;entryDx=0;entryDy=0;exitX=0.5;exitY=0;exitDx=0;exitDy=0;strokeWidth=2;endFill=1;startFill=1;startArrow=oval;strokeColor=#292E38;" parent="9_FCnLAXndZyDKLmjUKi-1" source="up2XAxVWtve2WkGburIk-21" target="up2XAxVWtve2WkGburIk-24" edge="1">
          <mxGeometry width="50" height="50" relative="1" as="geometry">
            <mxPoint x="230.00499999999988" y="320" as="sourcePoint" />
            <mxPoint x="230" y="221" as="targetPoint" />
          </mxGeometry>
        </mxCell>
        <mxCell id="up2XAxVWtve2WkGburIk-28" value="&lt;div&gt;&lt;font data-font-src=&quot;https://fonts.googleapis.com/css?family=Montserrat&quot; style=&quot;font-size: 20px&quot; face=&quot;Montserrat&quot;&gt;Node&lt;/font&gt; NetNS&lt;/div&gt;" style="text;whiteSpace=wrap;html=1;fontSize=22;fontFamily=Montserrat;" parent="9_FCnLAXndZyDKLmjUKi-1" vertex="1">
          <mxGeometry x="240" y="240" width="160" height="40" as="geometry" />
        </mxCell>
        <mxCell id="up2XAxVWtve2WkGburIk-29" value="" style="endArrow=none;dashed=1;html=1;fontFamily=Montserrat;fontSize=22;exitX=0;exitY=0.5;exitDx=0;exitDy=0;entryX=1;entryY=0.5;entryDx=0;entryDy=0;" parent="9_FCnLAXndZyDKLmjUKi-1" source="up2XAxVWtve2WkGburIk-0" target="up2XAxVWtve2WkGburIk-0" edge="1">
          <mxGeometry width="50" height="50" relative="1" as="geometry">
            <mxPoint x="90" y="509.9999999999998" as="sourcePoint" />
            <mxPoint x="1130" y="509.9999999999998" as="targetPoint" />
          </mxGeometry>
        </mxCell>
        <mxCell id="up2XAxVWtve2WkGburIk-30" value="&lt;div&gt;&lt;font data-font-src=&quot;https://fonts.googleapis.com/css?family=Montserrat&quot; style=&quot;font-size: 20px&quot; face=&quot;Montserrat&quot;&gt;Node&lt;/font&gt; NetNS&lt;/div&gt;" style="text;whiteSpace=wrap;html=1;fontSize=22;fontFamily=Montserrat;" parent="9_FCnLAXndZyDKLmjUKi-1" vertex="1">
          <mxGeometry x="620" y="240" width="160" height="40" as="geometry" />
        </mxCell>
        <mxCell id="up2XAxVWtve2WkGburIk-31" value="" style="endArrow=none;dashed=1;html=1;fontFamily=Montserrat;fontSize=22;exitX=0;exitY=0.5;exitDx=0;exitDy=0;entryX=1;entryY=0.5;entryDx=0;entryDy=0;" parent="9_FCnLAXndZyDKLmjUKi-1" edge="1">
          <mxGeometry width="50" height="50" relative="1" as="geometry">
            <mxPoint x="420" y="245.5" as="sourcePoint" />
            <mxPoint x="760" y="245.5" as="targetPoint" />
          </mxGeometry>
        </mxCell>
        <mxCell id="up2XAxVWtve2WkGburIk-32" value="&lt;div&gt;&lt;font data-font-src=&quot;https://fonts.googleapis.com/css?family=Montserrat&quot; style=&quot;font-size: 20px&quot; face=&quot;Montserrat&quot;&gt;Node&lt;/font&gt; NetNS&lt;/div&gt;" style="text;whiteSpace=wrap;html=1;fontSize=22;fontFamily=Montserrat;" parent="9_FCnLAXndZyDKLmjUKi-1" vertex="1">
          <mxGeometry x="1000" y="240" width="160" height="40" as="geometry" />
        </mxCell>
        <mxCell id="up2XAxVWtve2WkGburIk-33" value="" style="endArrow=none;dashed=1;html=1;fontFamily=Montserrat;fontSize=22;exitX=0;exitY=0.5;exitDx=0;exitDy=0;entryX=1;entryY=0.5;entryDx=0;entryDy=0;" parent="9_FCnLAXndZyDKLmjUKi-1" edge="1">
          <mxGeometry width="50" height="50" relative="1" as="geometry">
            <mxPoint x="800" y="245.5" as="sourcePoint" />
            <mxPoint x="1140" y="245.5" as="targetPoint" />
          </mxGeometry>
        </mxCell>
        <mxCell id="up2XAxVWtve2WkGburIk-34" value="" style="endArrow=oval;html=1;fontFamily=Montserrat;fontSize=22;entryX=0.5;entryY=1;entryDx=0;entryDy=0;edgeStyle=orthogonalEdgeStyle;exitX=0;exitY=0.5;exitDx=0;exitDy=0;curved=1;startArrow=oval;startFill=1;endFill=1;strokeWidth=2;strokeColor=#666361;" parent="9_FCnLAXndZyDKLmjUKi-1" source="up2XAxVWtve2WkGburIk-18" target="up2XAxVWtve2WkGburIk-5" edge="1">
          <mxGeometry width="50" height="50" relative="1" as="geometry">
            <mxPoint x="561" y="560" as="sourcePoint" />
            <mxPoint x="490" y="541" as="targetPoint" />
          </mxGeometry>
        </mxCell>
        <mxCell id="up2XAxVWtve2WkGburIk-35" value="" style="endArrow=oval;html=1;fontFamily=Montserrat;fontSize=22;entryX=0.5;entryY=1;entryDx=0;entryDy=0;exitX=0.5;exitY=0;exitDx=0;exitDy=0;strokeColor=#666361;startArrow=oval;startFill=1;endFill=1;strokeWidth=2;" parent="9_FCnLAXndZyDKLmjUKi-1" source="up2XAxVWtve2WkGburIk-18" target="up2XAxVWtve2WkGburIk-13" edge="1">
          <mxGeometry width="50" height="50" relative="1" as="geometry">
            <mxPoint x="600.5" y="520.5" as="sourcePoint" />
            <mxPoint x="220" y="481" as="targetPoint" />
          </mxGeometry>
        </mxCell>
        <mxCell id="up2XAxVWtve2WkGburIk-36" value="" style="endArrow=oval;html=1;fontFamily=Montserrat;fontSize=22;entryX=0.5;entryY=1;entryDx=0;entryDy=0;exitX=1;exitY=0.5;exitDx=0;exitDy=0;edgeStyle=orthogonalEdgeStyle;curved=1;strokeColor=#666361;startArrow=oval;startFill=1;endFill=1;strokeWidth=2;" parent="9_FCnLAXndZyDKLmjUKi-1" source="up2XAxVWtve2WkGburIk-18" target="up2XAxVWtve2WkGburIk-14" edge="1">
          <mxGeometry width="50" height="50" relative="1" as="geometry">
            <mxPoint x="640" y="560" as="sourcePoint" />
            <mxPoint x="610" y="481" as="targetPoint" />
          </mxGeometry>
        </mxCell>
        <mxCell id="up2XAxVWtve2WkGburIk-37" value="" style="group" parent="9_FCnLAXndZyDKLmjUKi-1" vertex="1" connectable="0">
          <mxGeometry x="570.24" y="580" width="60" height="40" as="geometry" />
        </mxCell>
        <mxCell id="up2XAxVWtve2WkGburIk-38" value="&lt;font color=&quot;#C65835&quot;&gt;&lt;b&gt;&lt;span&gt;L3&lt;/span&gt;&lt;/b&gt;&lt;/font&gt;" style="rounded=0;whiteSpace=wrap;html=1;labelBackgroundColor=none;fillColor=none;gradientColor=none;fontFamily=PT Sans Narrow;fontSize=16;strokeColor=none;fontColor=#666361;" parent="up2XAxVWtve2WkGburIk-37" vertex="1">
          <mxGeometry width="60" height="40" as="geometry" />
        </mxCell>
        <mxCell id="up2XAxVWtve2WkGburIk-39" value="" style="endArrow=classic;html=1;strokeColor=#666361;strokeWidth=2;fontFamily=PT Sans Narrow;fontSize=16;exitX=0;exitY=0.5;exitDx=0;exitDy=0;entryX=1;entryY=0.25;entryDx=0;entryDy=0;" parent="up2XAxVWtve2WkGburIk-37" source="up2XAxVWtve2WkGburIk-38" target="up2XAxVWtve2WkGburIk-38" edge="1">
          <mxGeometry width="50" height="50" relative="1" as="geometry">
            <mxPoint x="60" y="-40" as="sourcePoint" />
            <mxPoint x="110" y="-90" as="targetPoint" />
            <Array as="points">
              <mxPoint x="10" y="10" />
            </Array>
          </mxGeometry>
        </mxCell>
        <mxCell id="up2XAxVWtve2WkGburIk-40" value="" style="endArrow=classic;html=1;strokeColor=#666361;strokeWidth=2;fontFamily=PT Sans Narrow;fontSize=16;exitX=1;exitY=0.5;exitDx=0;exitDy=0;entryX=-0.008;entryY=0.794;entryDx=0;entryDy=0;entryPerimeter=0;" parent="up2XAxVWtve2WkGburIk-37" source="up2XAxVWtve2WkGburIk-38" target="up2XAxVWtve2WkGburIk-38" edge="1">
          <mxGeometry width="50" height="50" relative="1" as="geometry">
            <mxPoint x="130" y="5" as="sourcePoint" />
            <mxPoint x="10" y="20" as="targetPoint" />
            <Array as="points">
              <mxPoint x="50" y="32" />
            </Array>
          </mxGeometry>
        </mxCell>
      </root>
    </mxGraphModel>
  </diagram>
  <diagram name="arch" id="ydZ7vDq7JmuY7Tl_GMgH">
    <mxGraphModel dx="1102" dy="810" grid="1" gridSize="10" guides="1" tooltips="1" connect="1" arrows="1" fold="1" page="1" pageScale="1" pageWidth="827" pageHeight="1169" math="0" shadow="0" extFonts="montserrat^https://fonts.googleapis.com/css?family=montserrat">
      <root>
        <mxCell id="5tIRBsZgvlCboir6Pi3i-0" />
        <mxCell id="5tIRBsZgvlCboir6Pi3i-1" parent="5tIRBsZgvlCboir6Pi3i-0" />
        <mxCell id="bXPgvI7Y2I3mXo6Ap8Au-0" value="" style="endArrow=none;dashed=1;html=1;fontFamily=Montserrat;fontSize=22;entryX=1;entryY=0;entryDx=0;entryDy=0;fontSource=https%3A%2F%2Ffonts.googleapis.com%2Fcss%3Ffamily%3DMontserrat;" parent="5tIRBsZgvlCboir6Pi3i-1" target="5tIRBsZgvlCboir6Pi3i-18" edge="1">
          <mxGeometry width="50" height="50" relative="1" as="geometry">
            <mxPoint x="180" y="447" as="sourcePoint" />
            <mxPoint x="630" y="447" as="targetPoint" />
          </mxGeometry>
        </mxCell>
        <mxCell id="5tIRBsZgvlCboir6Pi3i-10" value="" style="group;fontFamily=Montserrat;fontSource=https%3A%2F%2Ffonts.googleapis.com%2Fcss%3Ffamily%3DMontserrat;" parent="5tIRBsZgvlCboir6Pi3i-1" vertex="1" connectable="0">
          <mxGeometry x="560.5" y="520" width="80" height="80" as="geometry" />
        </mxCell>
        <mxCell id="5tIRBsZgvlCboir6Pi3i-18" value="&lt;div style=&quot;font-size: 16px;&quot;&gt;&lt;span style=&quot;font-size: 16px;&quot;&gt;Physical Network&amp;nbsp;&lt;/span&gt;&lt;/div&gt;&lt;div style=&quot;font-size: 16px;&quot;&gt;&lt;span style=&quot;font-size: 16px;&quot;&gt;Boundary&lt;/span&gt;&lt;/div&gt;" style="text;whiteSpace=wrap;html=1;fontSize=16;fontFamily=Montserrat;fontSource=https%3A%2F%2Ffonts.googleapis.com%2Fcss%3Ffamily%3DMontserrat;" parent="5tIRBsZgvlCboir6Pi3i-1" vertex="1">
          <mxGeometry x="525.5" y="448" width="150" height="80" as="geometry" />
        </mxCell>
        <mxCell id="5tIRBsZgvlCboir6Pi3i-43" value="&lt;div&gt;&lt;font&gt;Pod&lt;/font&gt;&lt;/div&gt;" style="rounded=1;whiteSpace=wrap;html=1;fontSize=16;fontFamily=Montserrat;fontColor=#FFFFFF;strokeColor=none;fillColor=#c65835;fontSource=https%3A%2F%2Ffonts.googleapis.com%2Fcss%3Ffamily%3DMontserrat;" parent="5tIRBsZgvlCboir6Pi3i-1" vertex="1">
          <mxGeometry x="106.31" y="80" width="80" height="40" as="geometry" />
        </mxCell>
        <mxCell id="5tIRBsZgvlCboir6Pi3i-44" value="&lt;div&gt;&lt;font&gt;Pod&lt;/font&gt;&lt;/div&gt;" style="rounded=1;whiteSpace=wrap;html=1;fontSize=16;fontFamily=Montserrat;fontColor=#FFFFFF;strokeColor=none;fillColor=#c65835;fontSource=https%3A%2F%2Ffonts.googleapis.com%2Fcss%3Ffamily%3DMontserrat;" parent="5tIRBsZgvlCboir6Pi3i-1" vertex="1">
          <mxGeometry x="326.31" y="80" width="80" height="40" as="geometry" />
        </mxCell>
        <mxCell id="5tIRBsZgvlCboir6Pi3i-45" value="&lt;div&gt;&lt;font&gt;Pod&lt;/font&gt;&lt;/div&gt;" style="rounded=1;whiteSpace=wrap;html=1;fontSize=16;fontFamily=Montserrat;fontColor=#FFFFFF;strokeColor=none;fillColor=#c65835;fontSource=https%3A%2F%2Ffonts.googleapis.com%2Fcss%3Ffamily%3DMontserrat;" parent="5tIRBsZgvlCboir6Pi3i-1" vertex="1">
          <mxGeometry x="550" y="80" width="80" height="40" as="geometry" />
        </mxCell>
        <mxCell id="5tIRBsZgvlCboir6Pi3i-46" value="&lt;div&gt;&lt;font&gt;Pod&lt;/font&gt;&lt;/div&gt;" style="rounded=1;whiteSpace=wrap;html=1;fontSize=17;fontFamily=Montserrat;fontColor=#FFFFFF;strokeColor=none;fillColor=#496495;fontSource=https%3A%2F%2Ffonts.googleapis.com%2Fcss%3Ffamily%3DMontserrat;" parent="5tIRBsZgvlCboir6Pi3i-1" vertex="1">
          <mxGeometry x="216.31" y="80" width="80" height="40" as="geometry" />
        </mxCell>
        <mxCell id="5tIRBsZgvlCboir6Pi3i-47" value="&lt;div&gt;&lt;font&gt;Pod&lt;/font&gt;&lt;/div&gt;" style="rounded=1;whiteSpace=wrap;html=1;fontSize=17;fontFamily=Montserrat;fontColor=#FFFFFF;strokeColor=none;fillColor=#496495;fontSource=https%3A%2F%2Ffonts.googleapis.com%2Fcss%3Ffamily%3DMontserrat;" parent="5tIRBsZgvlCboir6Pi3i-1" vertex="1">
          <mxGeometry x="440" y="80" width="80" height="40" as="geometry" />
        </mxCell>
        <mxCell id="5tIRBsZgvlCboir6Pi3i-48" value="&lt;div&gt;&lt;font&gt;Pod&lt;/font&gt;&lt;/div&gt;" style="rounded=1;whiteSpace=wrap;html=1;fontSize=17;fontFamily=Montserrat;fontColor=#FFFFFF;strokeColor=none;fillColor=#496495;fontSource=https%3A%2F%2Ffonts.googleapis.com%2Fcss%3Ffamily%3DMontserrat;" parent="5tIRBsZgvlCboir6Pi3i-1" vertex="1">
          <mxGeometry x="660.0000000000001" y="80" width="80" height="40" as="geometry" />
        </mxCell>
        <mxCell id="5tIRBsZgvlCboir6Pi3i-49" value="&lt;font style=&quot;font-size: 17px&quot; color=&quot;#EEAB96&quot;&gt;&lt;font data-font-src=&quot;https://fonts.googleapis.com/css?family=PT+Sans+Narrow&quot; face=&quot;PT Sans Narrow&quot;&gt;service&lt;/font&gt;:&lt;/font&gt;&amp;nbsp;ClusterIP" style="rounded=1;whiteSpace=wrap;html=1;fontFamily=Montserrat;fontSize=17;strokeColor=none;fillColor=#c65835;fontSource=https%3A%2F%2Ffonts.googleapis.com%2Fcss%3Ffamily%3DMontserrat;fontColor=#FFFFFF;" parent="5tIRBsZgvlCboir6Pi3i-1" vertex="1">
          <mxGeometry x="186.31" y="180" width="174.75" height="40" as="geometry" />
        </mxCell>
        <mxCell id="5tIRBsZgvlCboir6Pi3i-50" value="&lt;font color=&quot;#AEC0E0&quot;&gt;&lt;font data-font-src=&quot;https://fonts.googleapis.com/css?family=PT+Sans+Narrow&quot; face=&quot;PT Sans Narrow&quot;&gt;service&lt;/font&gt;:&lt;/font&gt;&amp;nbsp;&lt;font&gt;ClusterIP&lt;/font&gt;" style="rounded=1;whiteSpace=wrap;html=1;fontFamily=Montserrat;fontSize=17;strokeColor=none;fillColor=#496495;fontSource=https%3A%2F%2Ffonts.googleapis.com%2Fcss%3Ffamily%3DMontserrat;fontColor=#FFFFFF;" parent="5tIRBsZgvlCboir6Pi3i-1" vertex="1">
          <mxGeometry x="460" y="180" width="174.75" height="40" as="geometry" />
        </mxCell>
        <mxCell id="ligS-t75yNC2GWXbKa5A-0" value="&lt;font style=&quot;font-size: 17px&quot; color=&quot;#AEC0E0&quot;&gt;&lt;font data-font-src=&quot;https://fonts.googleapis.com/css?family=PT+Sans+Narrow&quot; face=&quot;PT Sans Narrow&quot;&gt;ingress&lt;/font&gt;:&lt;/font&gt;&amp;nbsp;&lt;font data-font-src=&quot;https://fonts.googleapis.com/css?family=PT+Sans+Narrow&quot;&gt;L7 Load-balancer&lt;/font&gt;" style="rounded=1;whiteSpace=wrap;html=1;fontFamily=Montserrat;fontSize=17;strokeColor=none;fontSource=https%3A%2F%2Ffonts.googleapis.com%2Fcss%3Ffamily%3DMontserrat;fontColor=#FFFFFF;fillColor=#8F3C77;" parent="5tIRBsZgvlCboir6Pi3i-1" vertex="1">
          <mxGeometry x="306" y="296" width="214.25" height="40" as="geometry" />
        </mxCell>
        <mxCell id="ligS-t75yNC2GWXbKa5A-1" value="&lt;font style=&quot;font-size: 16px&quot; color=&quot;#AEC0E0&quot;&gt;&lt;font data-font-src=&quot;https://fonts.googleapis.com/css?family=PT+Sans+Narrow&quot; face=&quot;PT Sans Narrow&quot;&gt;service&lt;/font&gt;:&lt;/font&gt;&lt;font style=&quot;font-size: 16px&quot;&gt;&amp;nbsp;L4&amp;nbsp;&lt;font style=&quot;font-size: 16px&quot;&gt;LoadBalancer&lt;/font&gt;&lt;/font&gt;" style="rounded=1;whiteSpace=wrap;html=1;fontFamily=Montserrat;fontSize=17;strokeColor=none;fontSource=https%3A%2F%2Ffonts.googleapis.com%2Fcss%3Ffamily%3DMontserrat;fontColor=#FFFFFF;fillColor=#666361;" parent="5tIRBsZgvlCboir6Pi3i-1" vertex="1">
          <mxGeometry x="306" y="428" width="214.5" height="40" as="geometry" />
        </mxCell>
        <mxCell id="BC2hE-lztbxTog_l1Ssn-0" value="" style="endArrow=oval;html=1;fontFamily=Montserrat;fontSize=22;entryX=0.5;entryY=1;entryDx=0;entryDy=0;edgeStyle=orthogonalEdgeStyle;exitX=0.25;exitY=0;exitDx=0;exitDy=0;curved=1;startArrow=oval;startFill=1;endFill=1;strokeWidth=2;strokeColor=#C65835;fontSource=https%3A%2F%2Ffonts.googleapis.com%2Fcss%3Ffamily%3DMontserrat;" parent="5tIRBsZgvlCboir6Pi3i-1" source="5tIRBsZgvlCboir6Pi3i-49" target="5tIRBsZgvlCboir6Pi3i-43" edge="1">
          <mxGeometry width="50" height="50" relative="1" as="geometry">
            <mxPoint x="512.6300000000001" y="560" as="sourcePoint" />
            <mxPoint x="210" y="471" as="targetPoint" />
          </mxGeometry>
        </mxCell>
        <mxCell id="BC2hE-lztbxTog_l1Ssn-1" value="" style="endArrow=oval;html=1;fontFamily=Montserrat;fontSize=22;entryX=0.5;entryY=1;entryDx=0;entryDy=0;edgeStyle=orthogonalEdgeStyle;exitX=0.5;exitY=0;exitDx=0;exitDy=0;curved=1;startArrow=oval;startFill=1;endFill=1;strokeWidth=2;strokeColor=#C65835;fontSource=https%3A%2F%2Ffonts.googleapis.com%2Fcss%3Ffamily%3DMontserrat;" parent="5tIRBsZgvlCboir6Pi3i-1" source="5tIRBsZgvlCboir6Pi3i-49" target="5tIRBsZgvlCboir6Pi3i-44" edge="1">
          <mxGeometry width="50" height="50" relative="1" as="geometry">
            <mxPoint x="239.99749999999995" y="190" as="sourcePoint" />
            <mxPoint x="156.30999999999995" y="130" as="targetPoint" />
          </mxGeometry>
        </mxCell>
        <mxCell id="BC2hE-lztbxTog_l1Ssn-2" value="" style="endArrow=oval;html=1;fontFamily=Montserrat;fontSize=22;entryX=0.5;entryY=1;entryDx=0;entryDy=0;edgeStyle=orthogonalEdgeStyle;exitX=0.75;exitY=0;exitDx=0;exitDy=0;curved=1;startArrow=oval;startFill=1;endFill=1;strokeWidth=2;strokeColor=#C65835;fontSource=https%3A%2F%2Ffonts.googleapis.com%2Fcss%3Ffamily%3DMontserrat;" parent="5tIRBsZgvlCboir6Pi3i-1" source="5tIRBsZgvlCboir6Pi3i-49" target="5tIRBsZgvlCboir6Pi3i-45" edge="1">
          <mxGeometry width="50" height="50" relative="1" as="geometry">
            <mxPoint x="283.6849999999997" y="190" as="sourcePoint" />
            <mxPoint x="376.30999999999995" y="130" as="targetPoint" />
          </mxGeometry>
        </mxCell>
        <mxCell id="BC2hE-lztbxTog_l1Ssn-3" value="" style="endArrow=oval;html=1;fontFamily=Montserrat;fontSize=22;entryX=0.25;entryY=0;entryDx=0;entryDy=0;edgeStyle=orthogonalEdgeStyle;exitX=0.5;exitY=1;exitDx=0;exitDy=0;curved=1;startArrow=oval;startFill=1;endFill=1;strokeWidth=2;strokeColor=#496495;fontSource=https%3A%2F%2Ffonts.googleapis.com%2Fcss%3Ffamily%3DMontserrat;" parent="5tIRBsZgvlCboir6Pi3i-1" source="5tIRBsZgvlCboir6Pi3i-46" target="5tIRBsZgvlCboir6Pi3i-50" edge="1">
          <mxGeometry width="50" height="50" relative="1" as="geometry">
            <mxPoint x="327.37249999999995" y="190" as="sourcePoint" />
            <mxPoint x="600" y="130" as="targetPoint" />
          </mxGeometry>
        </mxCell>
        <mxCell id="BC2hE-lztbxTog_l1Ssn-4" value="" style="endArrow=oval;html=1;fontFamily=Montserrat;fontSize=22;entryX=0.5;entryY=0;entryDx=0;entryDy=0;edgeStyle=orthogonalEdgeStyle;exitX=0.5;exitY=1;exitDx=0;exitDy=0;curved=1;startArrow=oval;startFill=1;endFill=1;strokeWidth=2;strokeColor=#496495;fontSource=https%3A%2F%2Ffonts.googleapis.com%2Fcss%3Ffamily%3DMontserrat;" parent="5tIRBsZgvlCboir6Pi3i-1" source="5tIRBsZgvlCboir6Pi3i-47" target="5tIRBsZgvlCboir6Pi3i-50" edge="1">
          <mxGeometry width="50" height="50" relative="1" as="geometry">
            <mxPoint x="266.30999999999995" y="130" as="sourcePoint" />
            <mxPoint x="513.6875" y="190" as="targetPoint" />
          </mxGeometry>
        </mxCell>
        <mxCell id="BC2hE-lztbxTog_l1Ssn-5" value="" style="endArrow=oval;html=1;fontFamily=Montserrat;fontSize=22;entryX=0.75;entryY=0;entryDx=0;entryDy=0;edgeStyle=orthogonalEdgeStyle;exitX=0.5;exitY=1;exitDx=0;exitDy=0;curved=1;startArrow=oval;startFill=1;endFill=1;strokeWidth=2;strokeColor=#496495;fontSource=https%3A%2F%2Ffonts.googleapis.com%2Fcss%3Ffamily%3DMontserrat;" parent="5tIRBsZgvlCboir6Pi3i-1" source="5tIRBsZgvlCboir6Pi3i-48" target="5tIRBsZgvlCboir6Pi3i-50" edge="1">
          <mxGeometry width="50" height="50" relative="1" as="geometry">
            <mxPoint x="490" y="130" as="sourcePoint" />
            <mxPoint x="557.375" y="190" as="targetPoint" />
          </mxGeometry>
        </mxCell>
        <mxCell id="BC2hE-lztbxTog_l1Ssn-6" value="" style="endArrow=oval;html=1;fontFamily=Montserrat;fontSize=22;entryX=0.25;entryY=0;entryDx=0;entryDy=0;edgeStyle=orthogonalEdgeStyle;exitX=0.5;exitY=1;exitDx=0;exitDy=0;curved=1;startArrow=oval;startFill=1;endFill=1;strokeWidth=2;strokeColor=#C65835;fontSource=https%3A%2F%2Ffonts.googleapis.com%2Fcss%3Ffamily%3DMontserrat;" parent="5tIRBsZgvlCboir6Pi3i-1" source="5tIRBsZgvlCboir6Pi3i-49" target="ligS-t75yNC2GWXbKa5A-0" edge="1">
          <mxGeometry width="50" height="50" relative="1" as="geometry">
            <mxPoint x="327.37249999999995" y="190" as="sourcePoint" />
            <mxPoint x="600" y="130" as="targetPoint" />
          </mxGeometry>
        </mxCell>
        <mxCell id="BC2hE-lztbxTog_l1Ssn-7" value="" style="endArrow=oval;html=1;fontFamily=Montserrat;fontSize=22;entryX=0.75;entryY=0;entryDx=0;entryDy=0;edgeStyle=orthogonalEdgeStyle;exitX=0.5;exitY=1;exitDx=0;exitDy=0;curved=1;startArrow=oval;startFill=1;endFill=1;strokeWidth=2;strokeColor=#496495;fontSource=https%3A%2F%2Ffonts.googleapis.com%2Fcss%3Ffamily%3DMontserrat;" parent="5tIRBsZgvlCboir6Pi3i-1" source="5tIRBsZgvlCboir6Pi3i-50" target="ligS-t75yNC2GWXbKa5A-0" edge="1">
          <mxGeometry width="50" height="50" relative="1" as="geometry">
            <mxPoint x="283.6849999999997" y="230" as="sourcePoint" />
            <mxPoint x="389.87249999999995" y="330" as="targetPoint" />
          </mxGeometry>
        </mxCell>
        <mxCell id="BC2hE-lztbxTog_l1Ssn-8" value="" style="endArrow=oval;html=1;fontFamily=Montserrat;fontSize=22;edgeStyle=orthogonalEdgeStyle;exitX=0.5;exitY=1;exitDx=0;exitDy=0;curved=1;startArrow=oval;startFill=1;endFill=1;strokeWidth=2;strokeColor=#8F3C77;fontSource=https%3A%2F%2Ffonts.googleapis.com%2Fcss%3Ffamily%3DMontserrat;" parent="5tIRBsZgvlCboir6Pi3i-1" source="ligS-t75yNC2GWXbKa5A-0" target="ligS-t75yNC2GWXbKa5A-1" edge="1">
          <mxGeometry width="50" height="50" relative="1" as="geometry">
            <mxPoint x="283.6849999999997" y="230" as="sourcePoint" />
            <mxPoint x="369.5625000000002" y="330" as="targetPoint" />
          </mxGeometry>
        </mxCell>
        <mxCell id="bXPgvI7Y2I3mXo6Ap8Au-3" value="" style="endArrow=oval;html=1;fontFamily=Montserrat;fontSize=22;edgeStyle=orthogonalEdgeStyle;exitX=0.25;exitY=1;exitDx=0;exitDy=0;curved=1;startArrow=oval;startFill=1;endFill=1;strokeWidth=2;strokeColor=#666361;fontSource=https%3A%2F%2Ffonts.googleapis.com%2Fcss%3Ffamily%3DMontserrat;" parent="5tIRBsZgvlCboir6Pi3i-1" source="ligS-t75yNC2GWXbKa5A-1" edge="1">
          <mxGeometry width="50" height="50" relative="1" as="geometry">
            <mxPoint x="423.125" y="398" as="sourcePoint" />
            <mxPoint x="360" y="498" as="targetPoint" />
          </mxGeometry>
        </mxCell>
        <mxCell id="bXPgvI7Y2I3mXo6Ap8Au-5" value="&lt;div style=&quot;font-size: 16px;&quot;&gt;&lt;span style=&quot;font-size: 16px;&quot;&gt;BGP&lt;/span&gt;&lt;/div&gt;" style="text;whiteSpace=wrap;html=1;fontSize=16;fontFamily=Montserrat;fontSource=https%3A%2F%2Ffonts.googleapis.com%2Fcss%3Ffamily%3DMontserrat;" parent="5tIRBsZgvlCboir6Pi3i-1" vertex="1">
          <mxGeometry x="340" y="495" width="50" height="35" as="geometry" />
        </mxCell>
        <mxCell id="bXPgvI7Y2I3mXo6Ap8Au-7" value="" style="endArrow=oval;html=1;fontFamily=Montserrat;fontSize=22;edgeStyle=orthogonalEdgeStyle;exitX=0.75;exitY=1;exitDx=0;exitDy=0;curved=1;startArrow=oval;startFill=1;endFill=1;strokeWidth=2;strokeColor=#666361;fontSource=https%3A%2F%2Ffonts.googleapis.com%2Fcss%3Ffamily%3DMontserrat;" parent="5tIRBsZgvlCboir6Pi3i-1" source="ligS-t75yNC2GWXbKa5A-1" edge="1">
          <mxGeometry width="50" height="50" relative="1" as="geometry">
            <mxPoint x="369.625" y="478" as="sourcePoint" />
            <mxPoint x="467" y="495" as="targetPoint" />
          </mxGeometry>
        </mxCell>
        <mxCell id="bXPgvI7Y2I3mXo6Ap8Au-8" value="&lt;div style=&quot;font-size: 16px;&quot;&gt;&lt;span style=&quot;font-size: 16px;&quot;&gt;gARP&lt;/span&gt;&lt;/div&gt;" style="text;whiteSpace=wrap;html=1;fontSize=16;fontFamily=Montserrat;fontSource=https%3A%2F%2Ffonts.googleapis.com%2Fcss%3Ffamily%3DMontserrat;" parent="5tIRBsZgvlCboir6Pi3i-1" vertex="1">
          <mxGeometry x="440" y="493" width="50" height="35" as="geometry" />
        </mxCell>
        <mxCell id="bXPgvI7Y2I3mXo6Ap8Au-9" value="&lt;font color=&quot;#AEC0E0&quot;&gt;&lt;font data-font-src=&quot;https://fonts.googleapis.com/css?family=PT+Sans+Narrow&quot; face=&quot;PT Sans Narrow&quot;&gt;service&lt;/font&gt;:&lt;/font&gt;&amp;nbsp;NodePort" style="rounded=1;whiteSpace=wrap;html=1;fontFamily=Montserrat;fontSize=17;strokeColor=none;fontSource=https%3A%2F%2Ffonts.googleapis.com%2Fcss%3Ffamily%3DMontserrat;fontColor=#FFFFFF;fillColor=#666361;" parent="5tIRBsZgvlCboir6Pi3i-1" vertex="1">
          <mxGeometry x="335.5" y="360" width="154.5" height="40" as="geometry" />
        </mxCell>
      </root>
    </mxGraphModel>
  </diagram>
  <diagram name="public clouds" id="A5cMEZUylDs-XIrDOgQv">
    <mxGraphModel dx="1422" dy="729" grid="1" gridSize="10" guides="1" tooltips="1" connect="1" arrows="1" fold="1" page="1" pageScale="1" pageWidth="1169" pageHeight="827" math="0" shadow="0" extFonts="montserrat^https://fonts.googleapis.com/css?family=montserrat">
      <root>
        <mxCell id="QtaKG2H1Rl4aARjAMW4F-0" />
        <mxCell id="QtaKG2H1Rl4aARjAMW4F-1" parent="QtaKG2H1Rl4aARjAMW4F-0" />
        <mxCell id="qNAj-V9V1Vuiiczqkp-8-4" value="&lt;b style=&quot;font-size: 16px ; text-align: left&quot;&gt;10.244.0.0/24&lt;/b&gt;&lt;span style=&quot;text-align: left ; left: 208.599px ; top: 216.875px ; font-size: 15px ; font-family: sans-serif&quot;&gt;&amp;nbsp;→&amp;nbsp;&lt;/span&gt;&lt;font data-font-src=&quot;https://fonts.googleapis.com/css?family=PT+Sans+Narrow&quot; face=&quot;PT Sans Narrow&quot;&gt;&lt;span style=&quot;font-size: 16px ; text-align: left&quot;&gt;&lt;span class=&quot;char&quot;&gt;&lt;span class=&quot;vchar&quot; id=&quot;char-node&quot;&gt;&lt;/span&gt;&lt;/span&gt;&lt;/span&gt;&lt;/font&gt;&lt;font style=&quot;font-size: 16px ; text-align: left&quot; data-font-src=&quot;https://fonts.googleapis.com/css?family=PT+Sans+Narrow&quot; face=&quot;PT Sans Narrow&quot;&gt;172.16.0.11&lt;br&gt;&lt;/font&gt;&lt;b style=&quot;font-size: 16px ; text-align: left&quot;&gt;10.244.1.0/24&lt;/b&gt;&lt;span style=&quot;text-align: left ; left: 208.599px ; top: 216.875px ; font-size: 15px ; font-family: sans-serif&quot;&gt;&amp;nbsp;→&amp;nbsp;&lt;/span&gt;&lt;font data-font-src=&quot;https://fonts.googleapis.com/css?family=PT+Sans+Narrow&quot; face=&quot;PT Sans Narrow&quot;&gt;&lt;span style=&quot;font-size: 16px ; text-align: left&quot;&gt;&lt;span class=&quot;char&quot;&gt;&lt;span class=&quot;vchar&quot; id=&quot;char-node&quot;&gt;&lt;/span&gt;&lt;/span&gt;&lt;/span&gt;&lt;font style=&quot;font-size: 16px ; text-align: left&quot; data-font-src=&quot;https://fonts.googleapis.com/css?family=PT+Sans+Narrow&quot;&gt;172.16.0.12&lt;/font&gt;&lt;/font&gt;&lt;font style=&quot;font-size: 16px ; text-align: left&quot; data-font-src=&quot;https://fonts.googleapis.com/css?family=PT+Sans+Narrow&quot; face=&quot;PT Sans Narrow&quot;&gt;&lt;br&gt;&lt;/font&gt;" style="whiteSpace=wrap;html=1;rounded=1;arcSize=5;fontFamily=Montserrat;fontSource=https%3A%2F%2Ffonts.googleapis.com%2Fcss%3Ffamily%3DMontserrat;fontSize=22;verticalAlign=bottom;" parent="QtaKG2H1Rl4aARjAMW4F-1" vertex="1">
          <mxGeometry x="310" y="460" width="215.5" height="140" as="geometry" />
        </mxCell>
        <mxCell id="QtaKG2H1Rl4aARjAMW4F-3" value="" style="group;fontFamily=Montserrat;fontSource=https%3A%2F%2Ffonts.googleapis.com%2Fcss%3Ffamily%3DMontserrat;" parent="QtaKG2H1Rl4aARjAMW4F-1" vertex="1" connectable="0">
          <mxGeometry x="720.5" y="230" width="80" height="80" as="geometry" />
        </mxCell>
        <mxCell id="SwY3dacRO_BbPsUjz8_G-0" value="Control Plane&lt;br&gt;&lt;br&gt;&lt;br&gt;&lt;br&gt;&lt;font style=&quot;font-size: 16px&quot;&gt;Cloud Controller Manager&lt;/font&gt;" style="whiteSpace=wrap;html=1;rounded=1;arcSize=5;fontFamily=Montserrat;fontSource=https%3A%2F%2Ffonts.googleapis.com%2Fcss%3Ffamily%3DMontserrat;fontSize=22;verticalAlign=top;strokeColor=#496495;" parent="QtaKG2H1Rl4aARjAMW4F-1" vertex="1">
          <mxGeometry x="710" y="260" width="215.5" height="140" as="geometry" />
        </mxCell>
        <mxCell id="p3NXFcGhxFouCkFqbBvs-0" value="" style="aspect=fixed;html=1;points=[];align=center;image;fontSize=12;image=img/lib/mscae/Kubernetes.svg;" parent="QtaKG2H1Rl4aARjAMW4F-1" vertex="1">
          <mxGeometry x="792.75" y="297" width="50" height="48" as="geometry" />
        </mxCell>
        <mxCell id="Q15WpE1qeZ5xOH9dzJyb-0" value="IaaS Provider" style="whiteSpace=wrap;html=1;rounded=1;arcSize=5;fontFamily=Montserrat;fontSource=https%3A%2F%2Ffonts.googleapis.com%2Fcss%3Ffamily%3DMontserrat;fontSize=22;verticalAlign=top;" parent="QtaKG2H1Rl4aARjAMW4F-1" vertex="1">
          <mxGeometry x="710" y="460" width="215.5" height="140" as="geometry" />
        </mxCell>
        <mxCell id="Q15WpE1qeZ5xOH9dzJyb-1" value="" style="aspect=fixed;perimeter=ellipsePerimeter;html=1;align=center;shadow=0;dashed=0;fontColor=#4277BB;labelBackgroundColor=#ffffff;fontSize=12;spacingTop=3;image;image=img/lib/ibm/management/provider_cloud_portal_service.svg;" parent="QtaKG2H1Rl4aARjAMW4F-1" vertex="1">
          <mxGeometry x="787.75" y="520" width="60" height="60" as="geometry" />
        </mxCell>
        <mxCell id="Q15WpE1qeZ5xOH9dzJyb-2" value="Node-1&lt;br&gt;&lt;br&gt;&lt;font style=&quot;font-size: 16px&quot;&gt;&lt;b&gt;&lt;br&gt;PodCIDR&lt;/b&gt;: &lt;font data-font-src=&quot;https://fonts.googleapis.com/css?family=PT+Sans+Narrow&quot; face=&quot;PT Sans Narrow&quot;&gt;10.244.0.0/24&lt;/font&gt;&lt;br&gt;&lt;b&gt;InternalIP&lt;/b&gt;: &lt;font data-font-src=&quot;https://fonts.googleapis.com/css?family=PT+Sans+Narrow&quot; face=&quot;PT Sans Narrow&quot;&gt;172.16.0.11&lt;/font&gt;&lt;/font&gt;" style="whiteSpace=wrap;html=1;rounded=1;arcSize=5;fontFamily=Montserrat;fontSource=https%3A%2F%2Ffonts.googleapis.com%2Fcss%3Ffamily%3DMontserrat;fontSize=22;verticalAlign=top;" parent="QtaKG2H1Rl4aARjAMW4F-1" vertex="1">
          <mxGeometry x="190" y="260" width="215.5" height="140" as="geometry" />
        </mxCell>
        <mxCell id="Q15WpE1qeZ5xOH9dzJyb-3" value="Node-2&lt;br&gt;&lt;br&gt;&lt;br&gt;&lt;font style=&quot;font-size: 16px&quot;&gt;&lt;b&gt;PodCIDR&lt;/b&gt;: &lt;font data-font-src=&quot;https://fonts.googleapis.com/css?family=PT+Sans+Narrow&quot; face=&quot;PT Sans Narrow&quot;&gt;10.244.1.0/24&lt;/font&gt;&lt;br&gt;&lt;b&gt;InternalIP&lt;/b&gt;: &lt;font data-font-src=&quot;https://fonts.googleapis.com/css?family=PT+Sans+Narrow&quot; face=&quot;PT Sans Narrow&quot;&gt;172.16.0.12&lt;/font&gt;&lt;/font&gt;" style="whiteSpace=wrap;html=1;rounded=1;arcSize=5;fontFamily=Montserrat;fontSource=https%3A%2F%2Ffonts.googleapis.com%2Fcss%3Ffamily%3DMontserrat;fontSize=22;verticalAlign=top;" parent="QtaKG2H1Rl4aARjAMW4F-1" vertex="1">
          <mxGeometry x="440" y="260" width="215.5" height="140" as="geometry" />
        </mxCell>
        <mxCell id="qNAj-V9V1Vuiiczqkp-8-0" value="" style="group" parent="QtaKG2H1Rl4aARjAMW4F-1" vertex="1" connectable="0">
          <mxGeometry x="387.75" y="490" width="60" height="40" as="geometry" />
        </mxCell>
        <mxCell id="qNAj-V9V1Vuiiczqkp-8-1" value="&lt;font color=&quot;#C65835&quot;&gt;&lt;b&gt;&lt;span&gt;SDN&lt;/span&gt;&lt;/b&gt;&lt;/font&gt;" style="rounded=0;whiteSpace=wrap;html=1;labelBackgroundColor=none;fillColor=none;gradientColor=none;fontFamily=PT Sans Narrow;fontSize=16;strokeColor=none;fontColor=#666361;" parent="qNAj-V9V1Vuiiczqkp-8-0" vertex="1">
          <mxGeometry width="60" height="40" as="geometry" />
        </mxCell>
        <mxCell id="qNAj-V9V1Vuiiczqkp-8-2" value="" style="endArrow=classic;html=1;strokeColor=#666361;strokeWidth=2;fontFamily=PT Sans Narrow;fontSize=16;exitX=0;exitY=0.5;exitDx=0;exitDy=0;entryX=1;entryY=0.25;entryDx=0;entryDy=0;" parent="qNAj-V9V1Vuiiczqkp-8-0" source="qNAj-V9V1Vuiiczqkp-8-1" target="qNAj-V9V1Vuiiczqkp-8-1" edge="1">
          <mxGeometry width="50" height="50" relative="1" as="geometry">
            <mxPoint x="60" y="-40" as="sourcePoint" />
            <mxPoint x="110" y="-90" as="targetPoint" />
            <Array as="points">
              <mxPoint x="10" y="10" />
            </Array>
          </mxGeometry>
        </mxCell>
        <mxCell id="qNAj-V9V1Vuiiczqkp-8-3" value="" style="endArrow=classic;html=1;strokeColor=#666361;strokeWidth=2;fontFamily=PT Sans Narrow;fontSize=16;exitX=1;exitY=0.5;exitDx=0;exitDy=0;entryX=-0.008;entryY=0.794;entryDx=0;entryDy=0;entryPerimeter=0;" parent="qNAj-V9V1Vuiiczqkp-8-0" source="qNAj-V9V1Vuiiczqkp-8-1" target="qNAj-V9V1Vuiiczqkp-8-1" edge="1">
          <mxGeometry width="50" height="50" relative="1" as="geometry">
            <mxPoint x="130" y="5" as="sourcePoint" />
            <mxPoint x="10" y="20" as="targetPoint" />
            <Array as="points">
              <mxPoint x="50" y="32" />
            </Array>
          </mxGeometry>
        </mxCell>
        <mxCell id="0NZqg12XIpLqca_NKrIR-0" value="" style="endArrow=oval;html=1;fontFamily=Montserrat;fontSize=22;entryX=0.5;entryY=1;entryDx=0;entryDy=0;exitX=0.25;exitY=0;exitDx=0;exitDy=0;startArrow=oval;startFill=1;endFill=1;strokeWidth=2;strokeColor=#292E38;edgeStyle=orthogonalEdgeStyle;curved=1;" parent="QtaKG2H1Rl4aARjAMW4F-1" source="qNAj-V9V1Vuiiczqkp-8-4" target="Q15WpE1qeZ5xOH9dzJyb-2" edge="1">
          <mxGeometry width="50" height="50" relative="1" as="geometry">
            <mxPoint x="369.9949999999999" y="-50" as="sourcePoint" />
            <mxPoint x="370.0050000000001" y="-100" as="targetPoint" />
          </mxGeometry>
        </mxCell>
        <mxCell id="0NZqg12XIpLqca_NKrIR-1" value="" style="endArrow=oval;html=1;fontFamily=Montserrat;fontSize=22;entryX=0.5;entryY=1;entryDx=0;entryDy=0;exitX=0.75;exitY=0;exitDx=0;exitDy=0;startArrow=oval;startFill=1;endFill=1;strokeWidth=2;strokeColor=#292E38;edgeStyle=orthogonalEdgeStyle;curved=1;" parent="QtaKG2H1Rl4aARjAMW4F-1" source="qNAj-V9V1Vuiiczqkp-8-4" target="Q15WpE1qeZ5xOH9dzJyb-3" edge="1">
          <mxGeometry width="50" height="50" relative="1" as="geometry">
            <mxPoint x="373.875" y="470" as="sourcePoint" />
            <mxPoint x="307.75" y="410" as="targetPoint" />
          </mxGeometry>
        </mxCell>
        <mxCell id="0NZqg12XIpLqca_NKrIR-2" value="" style="html=1;verticalLabelPosition=bottom;align=center;labelBackgroundColor=#ffffff;verticalAlign=top;strokeWidth=2;shadow=0;dashed=0;shape=mxgraph.ios7.icons.settings;aspect=fixed;strokeColor=#496495;" parent="QtaKG2H1Rl4aARjAMW4F-1" vertex="1">
          <mxGeometry x="272.75" y="295" width="50" height="50" as="geometry" />
        </mxCell>
        <mxCell id="0NZqg12XIpLqca_NKrIR-3" value="" style="html=1;verticalLabelPosition=bottom;align=center;labelBackgroundColor=#ffffff;verticalAlign=top;strokeWidth=2;shadow=0;dashed=0;shape=mxgraph.ios7.icons.settings;aspect=fixed;strokeColor=#496495;" parent="QtaKG2H1Rl4aARjAMW4F-1" vertex="1">
          <mxGeometry x="522.75" y="295" width="50" height="50" as="geometry" />
        </mxCell>
        <mxCell id="0NZqg12XIpLqca_NKrIR-4" value="" style="endArrow=oval;html=1;fontFamily=Montserrat;fontSize=22;entryX=0.5;entryY=1;entryDx=0;entryDy=0;edgeStyle=orthogonalEdgeStyle;curved=1;startArrow=open;startFill=0;endFill=1;strokeWidth=2;strokeColor=#C65835;fontSource=https%3A%2F%2Ffonts.googleapis.com%2Fcss%3Ffamily%3DMontserrat;" parent="QtaKG2H1Rl4aARjAMW4F-1" source="Q15WpE1qeZ5xOH9dzJyb-0" target="SwY3dacRO_BbPsUjz8_G-0" edge="1">
          <mxGeometry width="50" height="50" relative="1" as="geometry">
            <mxPoint x="443.68499999999995" y="-60" as="sourcePoint" />
            <mxPoint x="529.5625" y="16" as="targetPoint" />
          </mxGeometry>
        </mxCell>
        <mxCell id="0NZqg12XIpLqca_NKrIR-5" value="" style="endArrow=oval;html=1;fontFamily=Montserrat;fontSize=22;entryX=0;entryY=0.5;entryDx=0;entryDy=0;edgeStyle=orthogonalEdgeStyle;curved=1;startArrow=open;startFill=0;endFill=1;strokeWidth=2;strokeColor=#C65835;fontSource=https%3A%2F%2Ffonts.googleapis.com%2Fcss%3Ffamily%3DMontserrat;exitX=0.75;exitY=1;exitDx=0;exitDy=0;" parent="QtaKG2H1Rl4aARjAMW4F-1" source="Q15WpE1qeZ5xOH9dzJyb-3" target="Q15WpE1qeZ5xOH9dzJyb-0" edge="1">
          <mxGeometry width="50" height="50" relative="1" as="geometry">
            <mxPoint x="827.8" y="470" as="sourcePoint" />
            <mxPoint x="650" y="530" as="targetPoint" />
          </mxGeometry>
        </mxCell>
        <mxCell id="0NZqg12XIpLqca_NKrIR-6" value="" style="endArrow=oval;html=1;fontFamily=Montserrat;fontSize=22;entryX=0;entryY=0.5;entryDx=0;entryDy=0;edgeStyle=orthogonalEdgeStyle;curved=1;startArrow=open;startFill=0;endFill=1;strokeWidth=2;strokeColor=#C65835;fontSource=https%3A%2F%2Ffonts.googleapis.com%2Fcss%3Ffamily%3DMontserrat;exitX=1;exitY=0.5;exitDx=0;exitDy=0;" parent="QtaKG2H1Rl4aARjAMW4F-1" source="qNAj-V9V1Vuiiczqkp-8-4" target="Q15WpE1qeZ5xOH9dzJyb-0" edge="1">
          <mxGeometry width="50" height="50" relative="1" as="geometry">
            <mxPoint x="611.625" y="410" as="sourcePoint" />
            <mxPoint x="650" y="530" as="targetPoint" />
          </mxGeometry>
        </mxCell>
        <mxCell id="0NZqg12XIpLqca_NKrIR-7" value="" style="endArrow=oval;html=1;fontFamily=Montserrat;fontSize=22;edgeStyle=orthogonalEdgeStyle;startArrow=open;startFill=0;endFill=1;strokeWidth=2;strokeColor=#C65835;fontSource=https%3A%2F%2Ffonts.googleapis.com%2Fcss%3Ffamily%3DMontserrat;exitX=0.75;exitY=1;exitDx=0;exitDy=0;curved=1;entryX=0;entryY=0.5;entryDx=0;entryDy=0;" parent="QtaKG2H1Rl4aARjAMW4F-1" source="Q15WpE1qeZ5xOH9dzJyb-2" target="Q15WpE1qeZ5xOH9dzJyb-0" edge="1">
          <mxGeometry width="50" height="50" relative="1" as="geometry">
            <mxPoint x="535.5" y="540" as="sourcePoint" />
            <mxPoint x="650" y="530" as="targetPoint" />
            <Array as="points">
              <mxPoint x="352" y="440" />
              <mxPoint x="570" y="440" />
              <mxPoint x="570" y="530" />
            </Array>
          </mxGeometry>
        </mxCell>
        <mxCell id="z5JRYd4-hzuVWq12wrls-0" value="" style="endArrow=classic;html=1;strokeWidth=2;fontFamily=Montserrat;fontSize=18;strokeColor=#496495;" edge="1" parent="QtaKG2H1Rl4aARjAMW4F-1">
          <mxGeometry width="50" height="50" relative="1" as="geometry">
            <mxPoint x="210" y="310" as="sourcePoint" />
            <mxPoint x="210" y="390" as="targetPoint" />
          </mxGeometry>
        </mxCell>
        <mxCell id="z5JRYd4-hzuVWq12wrls-1" value="" style="endArrow=classic;html=1;strokeWidth=2;fontFamily=Montserrat;fontSize=18;strokeColor=#496495;" edge="1" parent="QtaKG2H1Rl4aARjAMW4F-1">
          <mxGeometry width="50" height="50" relative="1" as="geometry">
            <mxPoint x="460" y="310" as="sourcePoint" />
            <mxPoint x="460" y="390" as="targetPoint" />
          </mxGeometry>
        </mxCell>
      </root>
    </mxGraphModel>
  </diagram>
</mxfile>
